<mxfile host="app.diagrams.net" modified="2023-11-23T16:51:28.034Z" agent="Mozilla/5.0 (Windows NT 10.0; Win64; x64) AppleWebKit/537.36 (KHTML, like Gecko) Chrome/119.0.0.0 Safari/537.36" etag="VPdEVioYPdEqMBU3Pyer" version="22.1.3" type="device">
  <diagram name="PÃ¡gina-1" id="F2NtI0A37VSO_cl3ZbmP">
    <mxGraphModel dx="2080" dy="1638" grid="0" gridSize="10" guides="1" tooltips="1" connect="1" arrows="1" fold="1" page="0" pageScale="1" pageWidth="827" pageHeight="1169" math="0" shadow="0">
      <root>
        <mxCell id="0" />
        <mxCell id="1" parent="0" />
        <mxCell id="I22vE5lJBab3B9H_vY07-15" value="" style="group" parent="1" vertex="1" connectable="0">
          <mxGeometry x="352" y="682" width="812" height="405" as="geometry" />
        </mxCell>
        <mxCell id="j5BVLODVtdJpvDju9NPj-47" value="Previous application" style="whiteSpace=wrap;html=1;align=center;fontSize=16;" parent="I22vE5lJBab3B9H_vY07-15" vertex="1">
          <mxGeometry x="349" y="137.5" width="106" height="47" as="geometry" />
        </mxCell>
        <mxCell id="j5BVLODVtdJpvDju9NPj-48" value="ID" style="ellipse;whiteSpace=wrap;html=1;align=center;fontStyle=4;fontSize=16;" parent="I22vE5lJBab3B9H_vY07-15" vertex="1">
          <mxGeometry x="627" y="5.5" width="100" height="40" as="geometry" />
        </mxCell>
        <mxCell id="j5BVLODVtdJpvDju9NPj-49" value="Contract type" style="ellipse;whiteSpace=wrap;html=1;align=center;fontSize=16;" parent="I22vE5lJBab3B9H_vY07-15" vertex="1">
          <mxGeometry x="16" y="213" width="110" height="40" as="geometry" />
        </mxCell>
        <mxCell id="j5BVLODVtdJpvDju9NPj-50" value="Application" style="ellipse;whiteSpace=wrap;html=1;align=center;fontSize=16;" parent="I22vE5lJBab3B9H_vY07-15" vertex="1">
          <mxGeometry x="700" y="139.5" width="112" height="43" as="geometry" />
        </mxCell>
        <mxCell id="j5BVLODVtdJpvDju9NPj-51" value="Goods price" style="ellipse;whiteSpace=wrap;html=1;align=center;fontSize=16;" parent="I22vE5lJBab3B9H_vY07-15" vertex="1">
          <mxGeometry x="73" y="289.5" width="108.5" height="44" as="geometry" />
        </mxCell>
        <mxCell id="j5BVLODVtdJpvDju9NPj-52" value="Down payment" style="ellipse;whiteSpace=wrap;html=1;align=center;fontSize=16;" parent="I22vE5lJBab3B9H_vY07-15" vertex="1">
          <mxGeometry x="677" y="210" width="128.5" height="43" as="geometry" />
        </mxCell>
        <mxCell id="j5BVLODVtdJpvDju9NPj-53" value="Anuity" style="ellipse;whiteSpace=wrap;html=1;align=center;fontSize=16;" parent="I22vE5lJBab3B9H_vY07-15" vertex="1">
          <mxGeometry x="195" y="341.5" width="108" height="40" as="geometry" />
        </mxCell>
        <mxCell id="j5BVLODVtdJpvDju9NPj-54" value="Credit" style="ellipse;whiteSpace=wrap;html=1;align=center;fontSize=16;" parent="I22vE5lJBab3B9H_vY07-15" vertex="1">
          <mxGeometry x="501" y="339.5" width="105" height="42" as="geometry" />
        </mxCell>
        <mxCell id="j5BVLODVtdJpvDju9NPj-55" value="Contract status" style="ellipse;whiteSpace=wrap;html=1;align=center;fontSize=16;" parent="I22vE5lJBab3B9H_vY07-15" vertex="1">
          <mxGeometry x="626" y="285.5" width="101" height="50" as="geometry" />
        </mxCell>
        <mxCell id="j5BVLODVtdJpvDju9NPj-58" value="Decision days" style="ellipse;whiteSpace=wrap;html=1;align=center;fontSize=16;" parent="I22vE5lJBab3B9H_vY07-15" vertex="1">
          <mxGeometry x="77.25" width="100" height="51" as="geometry" />
        </mxCell>
        <mxCell id="j5BVLODVtdJpvDju9NPj-59" value="Product type" style="ellipse;whiteSpace=wrap;html=1;align=center;fontSize=16;" parent="I22vE5lJBab3B9H_vY07-15" vertex="1">
          <mxGeometry y="141" width="110" height="40" as="geometry" />
        </mxCell>
        <mxCell id="j5BVLODVtdJpvDju9NPj-60" value="Chanel type" style="ellipse;whiteSpace=wrap;html=1;align=center;fontSize=16;" parent="I22vE5lJBab3B9H_vY07-15" vertex="1">
          <mxGeometry x="16" y="72.5" width="110" height="40" as="geometry" />
        </mxCell>
        <mxCell id="j5BVLODVtdJpvDju9NPj-61" value="Payment type" style="ellipse;whiteSpace=wrap;html=1;align=center;fontSize=16;" parent="I22vE5lJBab3B9H_vY07-15" vertex="1">
          <mxGeometry x="343.5" y="365" width="117" height="40" as="geometry" />
        </mxCell>
        <mxCell id="j5BVLODVtdJpvDju9NPj-62" value="Client type" style="ellipse;whiteSpace=wrap;html=1;align=center;fontSize=16;" parent="I22vE5lJBab3B9H_vY07-15" vertex="1">
          <mxGeometry x="686.25" y="72.5" width="110" height="40" as="geometry" />
        </mxCell>
        <mxCell id="I22vE5lJBab3B9H_vY07-2" value="" style="endArrow=none;html=1;rounded=0;" parent="I22vE5lJBab3B9H_vY07-15" source="j5BVLODVtdJpvDju9NPj-58" target="j5BVLODVtdJpvDju9NPj-47" edge="1">
          <mxGeometry relative="1" as="geometry">
            <mxPoint x="346" y="92.5" as="sourcePoint" />
            <mxPoint x="506" y="92" as="targetPoint" />
          </mxGeometry>
        </mxCell>
        <mxCell id="I22vE5lJBab3B9H_vY07-3" value="" style="endArrow=none;html=1;rounded=0;" parent="I22vE5lJBab3B9H_vY07-15" source="j5BVLODVtdJpvDju9NPj-47" target="j5BVLODVtdJpvDju9NPj-53" edge="1">
          <mxGeometry relative="1" as="geometry">
            <mxPoint x="346" y="41.5" as="sourcePoint" />
            <mxPoint x="506" y="41.5" as="targetPoint" />
          </mxGeometry>
        </mxCell>
        <mxCell id="I22vE5lJBab3B9H_vY07-4" value="" style="endArrow=none;html=1;rounded=0;" parent="I22vE5lJBab3B9H_vY07-15" source="j5BVLODVtdJpvDju9NPj-47" target="j5BVLODVtdJpvDju9NPj-54" edge="1">
          <mxGeometry relative="1" as="geometry">
            <mxPoint x="320" y="255.5" as="sourcePoint" />
            <mxPoint x="480" y="255.5" as="targetPoint" />
          </mxGeometry>
        </mxCell>
        <mxCell id="I22vE5lJBab3B9H_vY07-5" value="" style="endArrow=none;html=1;rounded=0;" parent="I22vE5lJBab3B9H_vY07-15" source="j5BVLODVtdJpvDju9NPj-47" target="j5BVLODVtdJpvDju9NPj-61" edge="1">
          <mxGeometry relative="1" as="geometry">
            <mxPoint x="328" y="232.5" as="sourcePoint" />
            <mxPoint x="488" y="232.5" as="targetPoint" />
          </mxGeometry>
        </mxCell>
        <mxCell id="I22vE5lJBab3B9H_vY07-6" value="" style="endArrow=none;html=1;rounded=0;" parent="I22vE5lJBab3B9H_vY07-15" source="j5BVLODVtdJpvDju9NPj-51" target="j5BVLODVtdJpvDju9NPj-47" edge="1">
          <mxGeometry relative="1" as="geometry">
            <mxPoint x="356" y="51.5" as="sourcePoint" />
            <mxPoint x="516" y="51.5" as="targetPoint" />
          </mxGeometry>
        </mxCell>
        <mxCell id="I22vE5lJBab3B9H_vY07-7" value="" style="endArrow=none;html=1;rounded=0;" parent="I22vE5lJBab3B9H_vY07-15" source="j5BVLODVtdJpvDju9NPj-49" target="j5BVLODVtdJpvDju9NPj-47" edge="1">
          <mxGeometry relative="1" as="geometry">
            <mxPoint x="366" y="61.5" as="sourcePoint" />
            <mxPoint x="526" y="61.5" as="targetPoint" />
          </mxGeometry>
        </mxCell>
        <mxCell id="I22vE5lJBab3B9H_vY07-8" value="" style="endArrow=none;html=1;rounded=0;" parent="I22vE5lJBab3B9H_vY07-15" source="j5BVLODVtdJpvDju9NPj-59" target="j5BVLODVtdJpvDju9NPj-47" edge="1">
          <mxGeometry relative="1" as="geometry">
            <mxPoint x="376" y="71.5" as="sourcePoint" />
            <mxPoint x="536" y="71.5" as="targetPoint" />
          </mxGeometry>
        </mxCell>
        <mxCell id="I22vE5lJBab3B9H_vY07-9" value="" style="endArrow=none;html=1;rounded=0;" parent="I22vE5lJBab3B9H_vY07-15" source="j5BVLODVtdJpvDju9NPj-60" target="j5BVLODVtdJpvDju9NPj-47" edge="1">
          <mxGeometry relative="1" as="geometry">
            <mxPoint x="386" y="81.5" as="sourcePoint" />
            <mxPoint x="546" y="81.5" as="targetPoint" />
          </mxGeometry>
        </mxCell>
        <mxCell id="I22vE5lJBab3B9H_vY07-10" value="" style="endArrow=none;html=1;rounded=0;" parent="I22vE5lJBab3B9H_vY07-15" source="j5BVLODVtdJpvDju9NPj-48" target="j5BVLODVtdJpvDju9NPj-47" edge="1">
          <mxGeometry relative="1" as="geometry">
            <mxPoint x="396" y="91.5" as="sourcePoint" />
            <mxPoint x="556" y="91.5" as="targetPoint" />
          </mxGeometry>
        </mxCell>
        <mxCell id="I22vE5lJBab3B9H_vY07-11" value="" style="endArrow=none;html=1;rounded=0;" parent="I22vE5lJBab3B9H_vY07-15" source="j5BVLODVtdJpvDju9NPj-47" target="j5BVLODVtdJpvDju9NPj-55" edge="1">
          <mxGeometry relative="1" as="geometry">
            <mxPoint x="406" y="101.5" as="sourcePoint" />
            <mxPoint x="566" y="101.5" as="targetPoint" />
          </mxGeometry>
        </mxCell>
        <mxCell id="I22vE5lJBab3B9H_vY07-12" value="" style="endArrow=none;html=1;rounded=0;" parent="I22vE5lJBab3B9H_vY07-15" source="j5BVLODVtdJpvDju9NPj-47" target="j5BVLODVtdJpvDju9NPj-52" edge="1">
          <mxGeometry relative="1" as="geometry">
            <mxPoint x="416" y="111.5" as="sourcePoint" />
            <mxPoint x="576" y="111.5" as="targetPoint" />
          </mxGeometry>
        </mxCell>
        <mxCell id="I22vE5lJBab3B9H_vY07-13" value="" style="endArrow=none;html=1;rounded=0;" parent="I22vE5lJBab3B9H_vY07-15" source="j5BVLODVtdJpvDju9NPj-47" target="j5BVLODVtdJpvDju9NPj-50" edge="1">
          <mxGeometry relative="1" as="geometry">
            <mxPoint x="426" y="121.5" as="sourcePoint" />
            <mxPoint x="586" y="121.5" as="targetPoint" />
          </mxGeometry>
        </mxCell>
        <mxCell id="I22vE5lJBab3B9H_vY07-14" value="" style="endArrow=none;html=1;rounded=0;" parent="I22vE5lJBab3B9H_vY07-15" source="j5BVLODVtdJpvDju9NPj-47" target="j5BVLODVtdJpvDju9NPj-62" edge="1">
          <mxGeometry relative="1" as="geometry">
            <mxPoint x="436" y="131.5" as="sourcePoint" />
            <mxPoint x="596" y="131.5" as="targetPoint" />
          </mxGeometry>
        </mxCell>
        <mxCell id="I22vE5lJBab3B9H_vY07-16" value="" style="group" parent="1" vertex="1" connectable="0">
          <mxGeometry x="-638" y="-837" width="1427.5" height="736.5" as="geometry" />
        </mxCell>
        <mxCell id="j5BVLODVtdJpvDju9NPj-133" value="" style="group" parent="I22vE5lJBab3B9H_vY07-16" vertex="1" connectable="0">
          <mxGeometry y="231" width="1427.5" height="505.5" as="geometry" />
        </mxCell>
        <mxCell id="j5BVLODVtdJpvDju9NPj-1" value="Client" style="whiteSpace=wrap;html=1;align=center;fontSize=16;" parent="j5BVLODVtdJpvDju9NPj-133" vertex="1">
          <mxGeometry x="747" y="305.75" width="100" height="40" as="geometry" />
        </mxCell>
        <mxCell id="j5BVLODVtdJpvDju9NPj-116" value="" style="group" parent="j5BVLODVtdJpvDju9NPj-133" vertex="1" connectable="0">
          <mxGeometry y="146" width="495" height="359.5" as="geometry" />
        </mxCell>
        <mxCell id="j5BVLODVtdJpvDju9NPj-14" value="Document flags" style="ellipse;margin=3;whiteSpace=wrap;html=1;align=center;fontSize=16;" parent="j5BVLODVtdJpvDju9NPj-116" vertex="1">
          <mxGeometry x="199.5" y="146" width="108" height="61" as="geometry" />
        </mxCell>
        <mxCell id="j5BVLODVtdJpvDju9NPj-15" value="Document 8" style="ellipse;whiteSpace=wrap;html=1;align=center;fontSize=16;" parent="j5BVLODVtdJpvDju9NPj-116" vertex="1">
          <mxGeometry x="18" y="88" width="113" height="46" as="geometry" />
        </mxCell>
        <mxCell id="j5BVLODVtdJpvDju9NPj-16" value="Document 11" style="ellipse;whiteSpace=wrap;html=1;align=center;fontSize=16;" parent="j5BVLODVtdJpvDju9NPj-116" vertex="1">
          <mxGeometry x="327" y="27" width="113" height="46" as="geometry" />
        </mxCell>
        <mxCell id="j5BVLODVtdJpvDju9NPj-17" value="Document 10" style="ellipse;whiteSpace=wrap;html=1;align=center;fontSize=16;" parent="j5BVLODVtdJpvDju9NPj-116" vertex="1">
          <mxGeometry x="199.5" width="113" height="46" as="geometry" />
        </mxCell>
        <mxCell id="j5BVLODVtdJpvDju9NPj-18" value="Document 9" style="ellipse;whiteSpace=wrap;html=1;align=center;fontSize=16;" parent="j5BVLODVtdJpvDju9NPj-116" vertex="1">
          <mxGeometry x="72" y="27" width="113" height="46" as="geometry" />
        </mxCell>
        <mxCell id="j5BVLODVtdJpvDju9NPj-19" value="Document 2" style="ellipse;whiteSpace=wrap;html=1;align=center;fontSize=16;" parent="j5BVLODVtdJpvDju9NPj-116" vertex="1">
          <mxGeometry x="382" y="219" width="113" height="46" as="geometry" />
        </mxCell>
        <mxCell id="j5BVLODVtdJpvDju9NPj-20" value="Document 7" style="ellipse;whiteSpace=wrap;html=1;align=center;fontSize=16;" parent="j5BVLODVtdJpvDju9NPj-116" vertex="1">
          <mxGeometry y="153.5" width="113" height="46" as="geometry" />
        </mxCell>
        <mxCell id="j5BVLODVtdJpvDju9NPj-21" value="Document 3" style="ellipse;whiteSpace=wrap;html=1;align=center;fontSize=16;" parent="j5BVLODVtdJpvDju9NPj-116" vertex="1">
          <mxGeometry x="327" y="276" width="113" height="46" as="geometry" />
        </mxCell>
        <mxCell id="j5BVLODVtdJpvDju9NPj-22" value="Document 4" style="ellipse;whiteSpace=wrap;html=1;align=center;fontSize=16;" parent="j5BVLODVtdJpvDju9NPj-116" vertex="1">
          <mxGeometry x="199.5" y="307" width="113" height="46" as="geometry" />
        </mxCell>
        <mxCell id="j5BVLODVtdJpvDju9NPj-23" value="Document 5" style="ellipse;whiteSpace=wrap;html=1;align=center;fontSize=16;" parent="j5BVLODVtdJpvDju9NPj-116" vertex="1">
          <mxGeometry x="72" y="276" width="113" height="46" as="geometry" />
        </mxCell>
        <mxCell id="j5BVLODVtdJpvDju9NPj-24" value="Document 6" style="ellipse;whiteSpace=wrap;html=1;align=center;fontSize=16;" parent="j5BVLODVtdJpvDju9NPj-116" vertex="1">
          <mxGeometry x="18" y="219" width="113" height="46" as="geometry" />
        </mxCell>
        <mxCell id="j5BVLODVtdJpvDju9NPj-25" value="Document 12" style="ellipse;whiteSpace=wrap;html=1;align=center;fontSize=16;" parent="j5BVLODVtdJpvDju9NPj-116" vertex="1">
          <mxGeometry x="382" y="88" width="113" height="46" as="geometry" />
        </mxCell>
        <mxCell id="j5BVLODVtdJpvDju9NPj-104" value="" style="endArrow=none;html=1;rounded=0;fontSize=12;startSize=8;endSize=8;curved=1;" parent="j5BVLODVtdJpvDju9NPj-116" source="j5BVLODVtdJpvDju9NPj-14" target="j5BVLODVtdJpvDju9NPj-19" edge="1">
          <mxGeometry relative="1" as="geometry">
            <mxPoint x="461" y="-36" as="sourcePoint" />
            <mxPoint x="621" y="-36" as="targetPoint" />
          </mxGeometry>
        </mxCell>
        <mxCell id="j5BVLODVtdJpvDju9NPj-106" value="" style="endArrow=none;html=1;rounded=0;fontSize=12;startSize=8;endSize=8;curved=1;" parent="j5BVLODVtdJpvDju9NPj-116" source="j5BVLODVtdJpvDju9NPj-14" target="j5BVLODVtdJpvDju9NPj-21" edge="1">
          <mxGeometry relative="1" as="geometry">
            <mxPoint x="583" y="49" as="sourcePoint" />
            <mxPoint x="743" y="49" as="targetPoint" />
          </mxGeometry>
        </mxCell>
        <mxCell id="j5BVLODVtdJpvDju9NPj-107" value="" style="endArrow=none;html=1;rounded=0;fontSize=12;startSize=8;endSize=8;curved=1;" parent="j5BVLODVtdJpvDju9NPj-116" source="j5BVLODVtdJpvDju9NPj-14" target="j5BVLODVtdJpvDju9NPj-22" edge="1">
          <mxGeometry relative="1" as="geometry">
            <mxPoint x="593" y="59" as="sourcePoint" />
            <mxPoint x="753" y="59" as="targetPoint" />
          </mxGeometry>
        </mxCell>
        <mxCell id="j5BVLODVtdJpvDju9NPj-108" value="" style="endArrow=none;html=1;rounded=0;fontSize=12;startSize=8;endSize=8;curved=1;" parent="j5BVLODVtdJpvDju9NPj-116" source="j5BVLODVtdJpvDju9NPj-23" target="j5BVLODVtdJpvDju9NPj-14" edge="1">
          <mxGeometry relative="1" as="geometry">
            <mxPoint x="603" y="69" as="sourcePoint" />
            <mxPoint x="763" y="69" as="targetPoint" />
          </mxGeometry>
        </mxCell>
        <mxCell id="j5BVLODVtdJpvDju9NPj-109" value="" style="endArrow=none;html=1;rounded=0;fontSize=12;startSize=8;endSize=8;curved=1;" parent="j5BVLODVtdJpvDju9NPj-116" source="j5BVLODVtdJpvDju9NPj-24" target="j5BVLODVtdJpvDju9NPj-14" edge="1">
          <mxGeometry relative="1" as="geometry">
            <mxPoint x="613" y="79" as="sourcePoint" />
            <mxPoint x="773" y="79" as="targetPoint" />
          </mxGeometry>
        </mxCell>
        <mxCell id="j5BVLODVtdJpvDju9NPj-110" value="" style="endArrow=none;html=1;rounded=0;fontSize=12;startSize=8;endSize=8;curved=1;" parent="j5BVLODVtdJpvDju9NPj-116" source="j5BVLODVtdJpvDju9NPj-20" target="j5BVLODVtdJpvDju9NPj-14" edge="1">
          <mxGeometry relative="1" as="geometry">
            <mxPoint x="623" y="89" as="sourcePoint" />
            <mxPoint x="783" y="89" as="targetPoint" />
          </mxGeometry>
        </mxCell>
        <mxCell id="j5BVLODVtdJpvDju9NPj-111" value="" style="endArrow=none;html=1;rounded=0;fontSize=12;startSize=8;endSize=8;curved=1;" parent="j5BVLODVtdJpvDju9NPj-116" source="j5BVLODVtdJpvDju9NPj-15" target="j5BVLODVtdJpvDju9NPj-14" edge="1">
          <mxGeometry relative="1" as="geometry">
            <mxPoint x="633" y="99" as="sourcePoint" />
            <mxPoint x="793" y="99" as="targetPoint" />
          </mxGeometry>
        </mxCell>
        <mxCell id="j5BVLODVtdJpvDju9NPj-112" value="" style="endArrow=none;html=1;rounded=0;fontSize=12;startSize=8;endSize=8;curved=1;" parent="j5BVLODVtdJpvDju9NPj-116" source="j5BVLODVtdJpvDju9NPj-18" target="j5BVLODVtdJpvDju9NPj-14" edge="1">
          <mxGeometry relative="1" as="geometry">
            <mxPoint x="648" y="112" as="sourcePoint" />
            <mxPoint x="803" y="109" as="targetPoint" />
          </mxGeometry>
        </mxCell>
        <mxCell id="j5BVLODVtdJpvDju9NPj-113" value="" style="endArrow=none;html=1;rounded=0;fontSize=12;startSize=8;endSize=8;curved=1;" parent="j5BVLODVtdJpvDju9NPj-116" source="j5BVLODVtdJpvDju9NPj-17" target="j5BVLODVtdJpvDju9NPj-14" edge="1">
          <mxGeometry relative="1" as="geometry">
            <mxPoint x="653" y="119" as="sourcePoint" />
            <mxPoint x="813" y="119" as="targetPoint" />
          </mxGeometry>
        </mxCell>
        <mxCell id="j5BVLODVtdJpvDju9NPj-114" value="" style="endArrow=none;html=1;rounded=0;fontSize=12;startSize=8;endSize=8;curved=1;" parent="j5BVLODVtdJpvDju9NPj-116" source="j5BVLODVtdJpvDju9NPj-16" target="j5BVLODVtdJpvDju9NPj-14" edge="1">
          <mxGeometry relative="1" as="geometry">
            <mxPoint x="663" y="129" as="sourcePoint" />
            <mxPoint x="823" y="129" as="targetPoint" />
          </mxGeometry>
        </mxCell>
        <mxCell id="j5BVLODVtdJpvDju9NPj-115" value="" style="endArrow=none;html=1;rounded=0;fontSize=12;startSize=8;endSize=8;curved=1;" parent="j5BVLODVtdJpvDju9NPj-116" source="j5BVLODVtdJpvDju9NPj-25" target="j5BVLODVtdJpvDju9NPj-14" edge="1">
          <mxGeometry relative="1" as="geometry">
            <mxPoint x="673" y="139" as="sourcePoint" />
            <mxPoint x="833" y="139" as="targetPoint" />
          </mxGeometry>
        </mxCell>
        <mxCell id="j5BVLODVtdJpvDju9NPj-119" value="" style="group" parent="j5BVLODVtdJpvDju9NPj-133" vertex="1" connectable="0">
          <mxGeometry x="1201.5" y="292" width="261.5" height="153.75" as="geometry" />
        </mxCell>
        <mxCell id="j5BVLODVtdJpvDju9NPj-35" value="Heritage flags" style="ellipse;margin=3;whiteSpace=wrap;html=1;align=center;fontSize=16;" parent="j5BVLODVtdJpvDju9NPj-119" vertex="1">
          <mxGeometry y="3.5" width="118" height="52" as="geometry" />
        </mxCell>
        <mxCell id="j5BVLODVtdJpvDju9NPj-37" value="Owning of car" style="ellipse;whiteSpace=wrap;html=1;align=center;fontSize=16;" parent="j5BVLODVtdJpvDju9NPj-119" vertex="1">
          <mxGeometry x="165.5" width="96" height="59" as="geometry" />
        </mxCell>
        <mxCell id="j5BVLODVtdJpvDju9NPj-36" value="Owning of realty" style="ellipse;whiteSpace=wrap;html=1;align=center;fontSize=16;" parent="j5BVLODVtdJpvDju9NPj-119" vertex="1">
          <mxGeometry x="8.5" y="94.75" width="101" height="59" as="geometry" />
        </mxCell>
        <mxCell id="j5BVLODVtdJpvDju9NPj-117" value="" style="endArrow=none;html=1;rounded=0;fontSize=12;startSize=8;endSize=8;curved=1;" parent="j5BVLODVtdJpvDju9NPj-119" source="j5BVLODVtdJpvDju9NPj-35" target="j5BVLODVtdJpvDju9NPj-36" edge="1">
          <mxGeometry relative="1" as="geometry">
            <mxPoint x="100" y="162.5" as="sourcePoint" />
            <mxPoint x="260" y="162.5" as="targetPoint" />
          </mxGeometry>
        </mxCell>
        <mxCell id="j5BVLODVtdJpvDju9NPj-118" value="" style="endArrow=none;html=1;rounded=0;fontSize=12;startSize=8;endSize=8;curved=1;" parent="j5BVLODVtdJpvDju9NPj-119" source="j5BVLODVtdJpvDju9NPj-35" target="j5BVLODVtdJpvDju9NPj-37" edge="1">
          <mxGeometry relative="1" as="geometry">
            <mxPoint x="100" y="162.5" as="sourcePoint" />
            <mxPoint x="260" y="162.5" as="targetPoint" />
          </mxGeometry>
        </mxCell>
        <mxCell id="j5BVLODVtdJpvDju9NPj-129" value="" style="group" parent="j5BVLODVtdJpvDju9NPj-133" vertex="1" connectable="0">
          <mxGeometry x="1134" width="293.5" height="248" as="geometry" />
        </mxCell>
        <mxCell id="j5BVLODVtdJpvDju9NPj-27" value="Contact flags" style="ellipse;margin=3;whiteSpace=wrap;html=1;align=center;fontSize=16;" parent="j5BVLODVtdJpvDju9NPj-129" vertex="1">
          <mxGeometry y="97" width="118" height="54" as="geometry" />
        </mxCell>
        <mxCell id="j5BVLODVtdJpvDju9NPj-28" value="EMP phone" style="ellipse;whiteSpace=wrap;html=1;align=center;fontSize=16;" parent="j5BVLODVtdJpvDju9NPj-129" vertex="1">
          <mxGeometry x="187.5" y="124" width="106" height="40" as="geometry" />
        </mxCell>
        <mxCell id="j5BVLODVtdJpvDju9NPj-29" value="Work phone" style="ellipse;whiteSpace=wrap;html=1;align=center;fontSize=16;" parent="j5BVLODVtdJpvDju9NPj-129" vertex="1">
          <mxGeometry x="188" y="78" width="105" height="40" as="geometry" />
        </mxCell>
        <mxCell id="j5BVLODVtdJpvDju9NPj-30" value="Contact mobile" style="ellipse;whiteSpace=wrap;html=1;align=center;fontSize=16;" parent="j5BVLODVtdJpvDju9NPj-129" vertex="1">
          <mxGeometry x="127" y="15" width="107" height="49" as="geometry" />
        </mxCell>
        <mxCell id="j5BVLODVtdJpvDju9NPj-31" value="Mobile" style="ellipse;whiteSpace=wrap;html=1;align=center;fontSize=16;" parent="j5BVLODVtdJpvDju9NPj-129" vertex="1">
          <mxGeometry x="9" y="208" width="100" height="40" as="geometry" />
        </mxCell>
        <mxCell id="j5BVLODVtdJpvDju9NPj-33" value="Phone" style="ellipse;whiteSpace=wrap;html=1;align=center;fontSize=16;" parent="j5BVLODVtdJpvDju9NPj-129" vertex="1">
          <mxGeometry x="130.5" y="180" width="100" height="40" as="geometry" />
        </mxCell>
        <mxCell id="j5BVLODVtdJpvDju9NPj-34" value="Email" style="ellipse;whiteSpace=wrap;html=1;align=center;fontSize=16;" parent="j5BVLODVtdJpvDju9NPj-129" vertex="1">
          <mxGeometry x="9" width="100" height="40" as="geometry" />
        </mxCell>
        <mxCell id="j5BVLODVtdJpvDju9NPj-120" value="" style="endArrow=none;html=1;rounded=0;fontSize=12;startSize=8;endSize=8;curved=1;" parent="j5BVLODVtdJpvDju9NPj-129" source="j5BVLODVtdJpvDju9NPj-27" target="j5BVLODVtdJpvDju9NPj-28" edge="1">
          <mxGeometry relative="1" as="geometry">
            <mxPoint x="-386" y="-128.83000000000004" as="sourcePoint" />
            <mxPoint x="-226" y="-128.83000000000004" as="targetPoint" />
          </mxGeometry>
        </mxCell>
        <mxCell id="j5BVLODVtdJpvDju9NPj-121" value="" style="endArrow=none;html=1;rounded=0;fontSize=12;startSize=8;endSize=8;curved=1;" parent="j5BVLODVtdJpvDju9NPj-129" source="j5BVLODVtdJpvDju9NPj-27" target="j5BVLODVtdJpvDju9NPj-31" edge="1">
          <mxGeometry relative="1" as="geometry">
            <mxPoint x="-376" y="-118.83000000000004" as="sourcePoint" />
            <mxPoint x="-216" y="-118.83000000000004" as="targetPoint" />
          </mxGeometry>
        </mxCell>
        <mxCell id="j5BVLODVtdJpvDju9NPj-122" value="" style="endArrow=none;html=1;rounded=0;fontSize=12;startSize=8;endSize=8;curved=1;" parent="j5BVLODVtdJpvDju9NPj-129" source="j5BVLODVtdJpvDju9NPj-27" target="j5BVLODVtdJpvDju9NPj-29" edge="1">
          <mxGeometry relative="1" as="geometry">
            <mxPoint x="-366" y="-108.83000000000004" as="sourcePoint" />
            <mxPoint x="-206" y="-108.83000000000004" as="targetPoint" />
          </mxGeometry>
        </mxCell>
        <mxCell id="j5BVLODVtdJpvDju9NPj-123" value="" style="endArrow=none;html=1;rounded=0;fontSize=12;startSize=8;endSize=8;curved=1;" parent="j5BVLODVtdJpvDju9NPj-129" source="j5BVLODVtdJpvDju9NPj-27" target="j5BVLODVtdJpvDju9NPj-30" edge="1">
          <mxGeometry relative="1" as="geometry">
            <mxPoint x="-356" y="-98.83000000000004" as="sourcePoint" />
            <mxPoint x="-196" y="-98.83000000000004" as="targetPoint" />
          </mxGeometry>
        </mxCell>
        <mxCell id="j5BVLODVtdJpvDju9NPj-124" value="" style="endArrow=none;html=1;rounded=0;fontSize=12;startSize=8;endSize=8;curved=1;" parent="j5BVLODVtdJpvDju9NPj-129" source="j5BVLODVtdJpvDju9NPj-27" target="j5BVLODVtdJpvDju9NPj-34" edge="1">
          <mxGeometry relative="1" as="geometry">
            <mxPoint x="-346" y="-88.83000000000004" as="sourcePoint" />
            <mxPoint x="-186" y="-88.83000000000004" as="targetPoint" />
          </mxGeometry>
        </mxCell>
        <mxCell id="j5BVLODVtdJpvDju9NPj-125" value="" style="endArrow=none;html=1;rounded=0;fontSize=12;startSize=8;endSize=8;curved=1;" parent="j5BVLODVtdJpvDju9NPj-129" source="j5BVLODVtdJpvDju9NPj-27" target="j5BVLODVtdJpvDju9NPj-33" edge="1">
          <mxGeometry relative="1" as="geometry">
            <mxPoint x="-336" y="-78.83000000000004" as="sourcePoint" />
            <mxPoint x="-176" y="-78.83000000000004" as="targetPoint" />
          </mxGeometry>
        </mxCell>
        <mxCell id="j5BVLODVtdJpvDju9NPj-130" value="" style="endArrow=none;html=1;rounded=0;fontSize=12;startSize=8;endSize=8;curved=1;" parent="j5BVLODVtdJpvDju9NPj-133" source="j5BVLODVtdJpvDju9NPj-14" target="j5BVLODVtdJpvDju9NPj-1" edge="1">
          <mxGeometry relative="1" as="geometry">
            <mxPoint x="172" y="-400" as="sourcePoint" />
            <mxPoint x="332" y="-400" as="targetPoint" />
          </mxGeometry>
        </mxCell>
        <mxCell id="j5BVLODVtdJpvDju9NPj-132" value="" style="endArrow=none;html=1;rounded=0;fontSize=12;startSize=8;endSize=8;curved=1;" parent="j5BVLODVtdJpvDju9NPj-133" source="j5BVLODVtdJpvDju9NPj-35" target="j5BVLODVtdJpvDju9NPj-1" edge="1">
          <mxGeometry relative="1" as="geometry">
            <mxPoint x="-246" y="-306" as="sourcePoint" />
            <mxPoint x="186" y="-304" as="targetPoint" />
          </mxGeometry>
        </mxCell>
        <mxCell id="j5BVLODVtdJpvDju9NPj-131" value="" style="endArrow=none;html=1;rounded=0;fontSize=12;startSize=8;endSize=8;curved=1;" parent="j5BVLODVtdJpvDju9NPj-133" source="j5BVLODVtdJpvDju9NPj-1" target="j5BVLODVtdJpvDju9NPj-27" edge="1">
          <mxGeometry relative="1" as="geometry">
            <mxPoint x="-28" y="-445" as="sourcePoint" />
            <mxPoint x="404" y="-443" as="targetPoint" />
          </mxGeometry>
        </mxCell>
        <mxCell id="j5BVLODVtdJpvDju9NPj-10" value="Occupation type" style="ellipse;whiteSpace=wrap;html=1;align=center;fontSize=16;" parent="j5BVLODVtdJpvDju9NPj-133" vertex="1">
          <mxGeometry x="266" y="53" width="114" height="55" as="geometry" />
        </mxCell>
        <mxCell id="Gx9S3VSfZiAoJ0ZGPeYS-13" value="" style="endArrow=none;html=1;rounded=0;" parent="j5BVLODVtdJpvDju9NPj-133" source="j5BVLODVtdJpvDju9NPj-10" target="j5BVLODVtdJpvDju9NPj-1" edge="1">
          <mxGeometry relative="1" as="geometry">
            <mxPoint x="714" y="-16" as="sourcePoint" />
            <mxPoint x="874" y="-16" as="targetPoint" />
          </mxGeometry>
        </mxCell>
        <mxCell id="I22vE5lJBab3B9H_vY07-17" value="" style="group" parent="I22vE5lJBab3B9H_vY07-16" vertex="1" connectable="0">
          <mxGeometry x="282" y="-22" width="940" height="272" as="geometry" />
        </mxCell>
        <mxCell id="j5BVLODVtdJpvDju9NPj-2" value="ID" style="ellipse;whiteSpace=wrap;html=1;align=center;fontStyle=4;fontSize=16;" parent="I22vE5lJBab3B9H_vY07-17" vertex="1">
          <mxGeometry x="408" width="100" height="40" as="geometry" />
        </mxCell>
        <mxCell id="j5BVLODVtdJpvDju9NPj-4" value="Days of birth" style="ellipse;whiteSpace=wrap;html=1;align=center;fontSize=16;" parent="I22vE5lJBab3B9H_vY07-17" vertex="1">
          <mxGeometry x="55" y="144" width="115" height="49" as="geometry" />
        </mxCell>
        <mxCell id="j5BVLODVtdJpvDju9NPj-5" value="Education type" style="ellipse;whiteSpace=wrap;html=1;align=center;fontSize=16;" parent="I22vE5lJBab3B9H_vY07-17" vertex="1">
          <mxGeometry x="806.75" y="106.5" width="107" height="55" as="geometry" />
        </mxCell>
        <mxCell id="j5BVLODVtdJpvDju9NPj-6" value="Family status" style="ellipse;whiteSpace=wrap;html=1;align=center;fontSize=16;" parent="I22vE5lJBab3B9H_vY07-17" vertex="1">
          <mxGeometry x="148" y="75" width="107" height="47" as="geometry" />
        </mxCell>
        <mxCell id="j5BVLODVtdJpvDju9NPj-9" value="Income type" style="ellipse;whiteSpace=wrap;html=1;align=center;fontSize=16;" parent="I22vE5lJBab3B9H_vY07-17" vertex="1">
          <mxGeometry x="846.75" y="190.5" width="119" height="43" as="geometry" />
        </mxCell>
        <mxCell id="j5BVLODVtdJpvDju9NPj-11" value="Number of children" style="ellipse;whiteSpace=wrap;html=1;align=center;fontSize=16;" parent="I22vE5lJBab3B9H_vY07-17" vertex="1">
          <mxGeometry y="217" width="114" height="55" as="geometry" />
        </mxCell>
        <mxCell id="j5BVLODVtdJpvDju9NPj-12" value="Number of family members" style="ellipse;whiteSpace=wrap;html=1;align=center;fontSize=16;" parent="I22vE5lJBab3B9H_vY07-17" vertex="1">
          <mxGeometry x="660" y="24.5" width="166" height="66.5" as="geometry" />
        </mxCell>
        <mxCell id="j5BVLODVtdJpvDju9NPj-13" value="Days employed" style="ellipse;whiteSpace=wrap;html=1;align=center;fontSize=16;" parent="I22vE5lJBab3B9H_vY07-17" vertex="1">
          <mxGeometry x="266" y="25.5" width="106" height="59" as="geometry" />
        </mxCell>
        <mxCell id="Gx9S3VSfZiAoJ0ZGPeYS-4" value="" style="endArrow=none;html=1;rounded=0;" parent="I22vE5lJBab3B9H_vY07-17" source="j5BVLODVtdJpvDju9NPj-9" target="j5BVLODVtdJpvDju9NPj-1" edge="1">
          <mxGeometry relative="1" as="geometry">
            <mxPoint x="342" y="147" as="sourcePoint" />
            <mxPoint x="614" y="366" as="targetPoint" />
          </mxGeometry>
        </mxCell>
        <mxCell id="Gx9S3VSfZiAoJ0ZGPeYS-5" value="" style="endArrow=none;html=1;rounded=0;" parent="I22vE5lJBab3B9H_vY07-17" source="j5BVLODVtdJpvDju9NPj-5" target="j5BVLODVtdJpvDju9NPj-1" edge="1">
          <mxGeometry relative="1" as="geometry">
            <mxPoint x="352" y="157" as="sourcePoint" />
            <mxPoint x="512" y="157" as="targetPoint" />
          </mxGeometry>
        </mxCell>
        <mxCell id="Gx9S3VSfZiAoJ0ZGPeYS-6" value="" style="endArrow=none;html=1;rounded=0;" parent="I22vE5lJBab3B9H_vY07-17" source="j5BVLODVtdJpvDju9NPj-12" target="j5BVLODVtdJpvDju9NPj-1" edge="1">
          <mxGeometry relative="1" as="geometry">
            <mxPoint x="362" y="167" as="sourcePoint" />
            <mxPoint x="522" y="167" as="targetPoint" />
          </mxGeometry>
        </mxCell>
        <mxCell id="Gx9S3VSfZiAoJ0ZGPeYS-8" value="" style="endArrow=none;html=1;rounded=0;" parent="I22vE5lJBab3B9H_vY07-17" source="j5BVLODVtdJpvDju9NPj-2" target="j5BVLODVtdJpvDju9NPj-1" edge="1">
          <mxGeometry relative="1" as="geometry">
            <mxPoint x="382" y="187" as="sourcePoint" />
            <mxPoint x="542" y="187" as="targetPoint" />
          </mxGeometry>
        </mxCell>
        <mxCell id="Gx9S3VSfZiAoJ0ZGPeYS-9" value="" style="endArrow=none;html=1;rounded=0;" parent="I22vE5lJBab3B9H_vY07-17" source="j5BVLODVtdJpvDju9NPj-13" target="j5BVLODVtdJpvDju9NPj-1" edge="1">
          <mxGeometry relative="1" as="geometry">
            <mxPoint x="392" y="197" as="sourcePoint" />
            <mxPoint x="552" y="197" as="targetPoint" />
          </mxGeometry>
        </mxCell>
        <mxCell id="Gx9S3VSfZiAoJ0ZGPeYS-10" value="" style="endArrow=none;html=1;rounded=0;" parent="I22vE5lJBab3B9H_vY07-17" source="j5BVLODVtdJpvDju9NPj-6" target="j5BVLODVtdJpvDju9NPj-1" edge="1">
          <mxGeometry relative="1" as="geometry">
            <mxPoint x="410" y="207" as="sourcePoint" />
            <mxPoint x="562" y="207" as="targetPoint" />
          </mxGeometry>
        </mxCell>
        <mxCell id="Gx9S3VSfZiAoJ0ZGPeYS-11" value="" style="endArrow=none;html=1;rounded=0;" parent="I22vE5lJBab3B9H_vY07-17" source="j5BVLODVtdJpvDju9NPj-4" target="j5BVLODVtdJpvDju9NPj-1" edge="1">
          <mxGeometry relative="1" as="geometry">
            <mxPoint x="412" y="217" as="sourcePoint" />
            <mxPoint x="572" y="217" as="targetPoint" />
          </mxGeometry>
        </mxCell>
        <mxCell id="Gx9S3VSfZiAoJ0ZGPeYS-12" value="" style="endArrow=none;html=1;rounded=0;" parent="I22vE5lJBab3B9H_vY07-17" source="j5BVLODVtdJpvDju9NPj-11" target="j5BVLODVtdJpvDju9NPj-1" edge="1">
          <mxGeometry relative="1" as="geometry">
            <mxPoint x="422" y="227" as="sourcePoint" />
            <mxPoint x="582" y="227" as="targetPoint" />
          </mxGeometry>
        </mxCell>
        <mxCell id="j5BVLODVtdJpvDju9NPj-3" value="Gender" style="ellipse;whiteSpace=wrap;html=1;align=center;fontSize=16;" parent="I22vE5lJBab3B9H_vY07-16" vertex="1">
          <mxGeometry x="816" y="-22" width="100" height="40" as="geometry" />
        </mxCell>
        <mxCell id="Gx9S3VSfZiAoJ0ZGPeYS-7" value="" style="endArrow=none;html=1;rounded=0;" parent="I22vE5lJBab3B9H_vY07-16" source="j5BVLODVtdJpvDju9NPj-3" target="j5BVLODVtdJpvDju9NPj-1" edge="1">
          <mxGeometry relative="1" as="geometry">
            <mxPoint x="774" y="130.5" as="sourcePoint" />
            <mxPoint x="934" y="130.5" as="targetPoint" />
          </mxGeometry>
        </mxCell>
        <mxCell id="I22vE5lJBab3B9H_vY07-34" value="" style="group" parent="1" vertex="1" connectable="0">
          <mxGeometry x="1018" y="-78" width="418.5" height="280.5" as="geometry" />
        </mxCell>
        <mxCell id="j5BVLODVtdJpvDju9NPj-63" value="Installment payment" style="whiteSpace=wrap;html=1;align=center;fontSize=16;" parent="I22vE5lJBab3B9H_vY07-34" vertex="1">
          <mxGeometry x="137.5" y="95" width="104" height="52" as="geometry" />
        </mxCell>
        <mxCell id="j5BVLODVtdJpvDju9NPj-64" value="Installment version" style="ellipse;whiteSpace=wrap;html=1;align=center;fontSize=16;" parent="I22vE5lJBab3B9H_vY07-34" vertex="1">
          <mxGeometry x="268.5" y="15" width="104" height="67" as="geometry" />
        </mxCell>
        <mxCell id="j5BVLODVtdJpvDju9NPj-65" value="ID" style="ellipse;whiteSpace=wrap;html=1;align=center;fontStyle=4;fontSize=16;" parent="I22vE5lJBab3B9H_vY07-34" vertex="1">
          <mxGeometry x="6.5" y="28.5" width="100" height="40" as="geometry" />
        </mxCell>
        <mxCell id="j5BVLODVtdJpvDju9NPj-66" value="Installment number" style="ellipse;whiteSpace=wrap;html=1;align=center;fontSize=16;" parent="I22vE5lJBab3B9H_vY07-34" vertex="1">
          <mxGeometry x="268.5" y="160" width="105" height="67" as="geometry" />
        </mxCell>
        <mxCell id="j5BVLODVtdJpvDju9NPj-68" value="Installment days" style="ellipse;whiteSpace=wrap;html=1;align=center;fontSize=16;" parent="I22vE5lJBab3B9H_vY07-34" vertex="1">
          <mxGeometry y="160" width="113" height="56" as="geometry" />
        </mxCell>
        <mxCell id="j5BVLODVtdJpvDju9NPj-70" value="Entry payment days" style="ellipse;whiteSpace=wrap;html=1;align=center;fontSize=16;" parent="I22vE5lJBab3B9H_vY07-34" vertex="1">
          <mxGeometry x="139.5" y="204.5" width="100" height="76" as="geometry" />
        </mxCell>
        <mxCell id="j5BVLODVtdJpvDju9NPj-80" value="Installment" style="ellipse;whiteSpace=wrap;html=1;align=center;fontSize=16;" parent="I22vE5lJBab3B9H_vY07-34" vertex="1">
          <mxGeometry x="318.5" y="101" width="100" height="40" as="geometry" />
        </mxCell>
        <mxCell id="j5BVLODVtdJpvDju9NPj-81" value="Payment" style="ellipse;whiteSpace=wrap;html=1;align=center;fontSize=16;" parent="I22vE5lJBab3B9H_vY07-34" vertex="1">
          <mxGeometry x="139.5" width="100" height="40" as="geometry" />
        </mxCell>
        <mxCell id="I22vE5lJBab3B9H_vY07-27" value="" style="endArrow=none;html=1;rounded=0;" parent="I22vE5lJBab3B9H_vY07-34" source="j5BVLODVtdJpvDju9NPj-63" target="j5BVLODVtdJpvDju9NPj-65" edge="1">
          <mxGeometry relative="1" as="geometry">
            <mxPoint x="39.5" y="-83" as="sourcePoint" />
            <mxPoint x="199.5" y="-83" as="targetPoint" />
          </mxGeometry>
        </mxCell>
        <mxCell id="I22vE5lJBab3B9H_vY07-28" value="" style="endArrow=none;html=1;rounded=0;" parent="I22vE5lJBab3B9H_vY07-34" source="j5BVLODVtdJpvDju9NPj-63" target="j5BVLODVtdJpvDju9NPj-81" edge="1">
          <mxGeometry relative="1" as="geometry">
            <mxPoint x="49.5" y="-73" as="sourcePoint" />
            <mxPoint x="209.5" y="-73" as="targetPoint" />
          </mxGeometry>
        </mxCell>
        <mxCell id="I22vE5lJBab3B9H_vY07-29" value="" style="endArrow=none;html=1;rounded=0;" parent="I22vE5lJBab3B9H_vY07-34" source="j5BVLODVtdJpvDju9NPj-63" target="j5BVLODVtdJpvDju9NPj-64" edge="1">
          <mxGeometry relative="1" as="geometry">
            <mxPoint x="59.5" y="-63" as="sourcePoint" />
            <mxPoint x="219.5" y="-63" as="targetPoint" />
          </mxGeometry>
        </mxCell>
        <mxCell id="I22vE5lJBab3B9H_vY07-30" value="" style="endArrow=none;html=1;rounded=0;" parent="I22vE5lJBab3B9H_vY07-34" source="j5BVLODVtdJpvDju9NPj-63" target="j5BVLODVtdJpvDju9NPj-80" edge="1">
          <mxGeometry relative="1" as="geometry">
            <mxPoint x="69.5" y="-53" as="sourcePoint" />
            <mxPoint x="229.5" y="-53" as="targetPoint" />
          </mxGeometry>
        </mxCell>
        <mxCell id="I22vE5lJBab3B9H_vY07-31" value="" style="endArrow=none;html=1;rounded=0;" parent="I22vE5lJBab3B9H_vY07-34" source="j5BVLODVtdJpvDju9NPj-63" target="j5BVLODVtdJpvDju9NPj-66" edge="1">
          <mxGeometry relative="1" as="geometry">
            <mxPoint x="79.5" y="-43" as="sourcePoint" />
            <mxPoint x="239.5" y="-43" as="targetPoint" />
          </mxGeometry>
        </mxCell>
        <mxCell id="I22vE5lJBab3B9H_vY07-32" value="" style="endArrow=none;html=1;rounded=0;" parent="I22vE5lJBab3B9H_vY07-34" source="j5BVLODVtdJpvDju9NPj-63" target="j5BVLODVtdJpvDju9NPj-70" edge="1">
          <mxGeometry relative="1" as="geometry">
            <mxPoint x="89.5" y="-33" as="sourcePoint" />
            <mxPoint x="249.5" y="-33" as="targetPoint" />
          </mxGeometry>
        </mxCell>
        <mxCell id="I22vE5lJBab3B9H_vY07-33" value="" style="endArrow=none;html=1;rounded=0;" parent="I22vE5lJBab3B9H_vY07-34" source="j5BVLODVtdJpvDju9NPj-63" target="j5BVLODVtdJpvDju9NPj-68" edge="1">
          <mxGeometry relative="1" as="geometry">
            <mxPoint x="99.5" y="-23" as="sourcePoint" />
            <mxPoint x="259.5" y="-23" as="targetPoint" />
          </mxGeometry>
        </mxCell>
        <mxCell id="o_ZVjZ1x3U8t-O-0K4jL-8" value="0:N" style="text;html=1;strokeColor=none;fillColor=none;align=center;verticalAlign=middle;whiteSpace=wrap;rounded=0;" vertex="1" parent="I22vE5lJBab3B9H_vY07-34">
          <mxGeometry x="19" y="92" width="60" height="30" as="geometry" />
        </mxCell>
        <mxCell id="I22vE5lJBab3B9H_vY07-35" value="" style="group" parent="1" vertex="1" connectable="0">
          <mxGeometry x="997" y="368.5" width="409" height="219.5" as="geometry" />
        </mxCell>
        <mxCell id="j5BVLODVtdJpvDju9NPj-38" value="Application" style="whiteSpace=wrap;html=1;align=center;fontSize=16;" parent="I22vE5lJBab3B9H_vY07-35" vertex="1">
          <mxGeometry x="131" y="90.5" width="100" height="40" as="geometry" />
        </mxCell>
        <mxCell id="j5BVLODVtdJpvDju9NPj-39" value="ID" style="ellipse;whiteSpace=wrap;html=1;align=center;fontStyle=4;fontSize=16;" parent="I22vE5lJBab3B9H_vY07-35" vertex="1">
          <mxGeometry x="2.5" y="25.5" width="100" height="40" as="geometry" />
        </mxCell>
        <mxCell id="j5BVLODVtdJpvDju9NPj-40" value="Contract type" style="ellipse;whiteSpace=wrap;html=1;align=center;fontSize=16;" parent="I22vE5lJBab3B9H_vY07-35" vertex="1">
          <mxGeometry x="299" y="90.5" width="110" height="40" as="geometry" />
        </mxCell>
        <mxCell id="j5BVLODVtdJpvDju9NPj-41" value="Target" style="ellipse;whiteSpace=wrap;html=1;align=center;fontSize=16;" parent="I22vE5lJBab3B9H_vY07-35" vertex="1">
          <mxGeometry x="131" width="100" height="40" as="geometry" />
        </mxCell>
        <mxCell id="j5BVLODVtdJpvDju9NPj-42" value="Goods price" style="ellipse;whiteSpace=wrap;html=1;align=center;fontSize=16;" parent="I22vE5lJBab3B9H_vY07-35" vertex="1">
          <mxGeometry x="250" y="24" width="112" height="43" as="geometry" />
        </mxCell>
        <mxCell id="j5BVLODVtdJpvDju9NPj-43" value="Total income" style="ellipse;whiteSpace=wrap;html=1;align=center;fontSize=16;" parent="I22vE5lJBab3B9H_vY07-35" vertex="1">
          <mxGeometry x="126.25" y="179.5" width="109.5" height="40" as="geometry" />
        </mxCell>
        <mxCell id="j5BVLODVtdJpvDju9NPj-44" value="Anuity" style="ellipse;whiteSpace=wrap;html=1;align=center;fontSize=16;" parent="I22vE5lJBab3B9H_vY07-35" vertex="1">
          <mxGeometry x="256" y="156.5" width="100" height="40" as="geometry" />
        </mxCell>
        <mxCell id="j5BVLODVtdJpvDju9NPj-45" value="Credit" style="ellipse;whiteSpace=wrap;html=1;align=center;fontSize=16;" parent="I22vE5lJBab3B9H_vY07-35" vertex="1">
          <mxGeometry y="155.5" width="105" height="42" as="geometry" />
        </mxCell>
        <mxCell id="I22vE5lJBab3B9H_vY07-19" value="" style="endArrow=none;html=1;rounded=0;" parent="I22vE5lJBab3B9H_vY07-35" source="j5BVLODVtdJpvDju9NPj-38" target="j5BVLODVtdJpvDju9NPj-39" edge="1">
          <mxGeometry relative="1" as="geometry">
            <mxPoint x="52" y="-99.5" as="sourcePoint" />
            <mxPoint x="212" y="-99.5" as="targetPoint" />
          </mxGeometry>
        </mxCell>
        <mxCell id="I22vE5lJBab3B9H_vY07-20" value="" style="endArrow=none;html=1;rounded=0;" parent="I22vE5lJBab3B9H_vY07-35" source="j5BVLODVtdJpvDju9NPj-38" target="j5BVLODVtdJpvDju9NPj-41" edge="1">
          <mxGeometry relative="1" as="geometry">
            <mxPoint x="62" y="-89.5" as="sourcePoint" />
            <mxPoint x="222" y="-89.5" as="targetPoint" />
          </mxGeometry>
        </mxCell>
        <mxCell id="I22vE5lJBab3B9H_vY07-21" value="" style="endArrow=none;html=1;rounded=0;" parent="I22vE5lJBab3B9H_vY07-35" source="j5BVLODVtdJpvDju9NPj-38" target="j5BVLODVtdJpvDju9NPj-45" edge="1">
          <mxGeometry relative="1" as="geometry">
            <mxPoint x="72" y="-79.5" as="sourcePoint" />
            <mxPoint x="232" y="-79.5" as="targetPoint" />
          </mxGeometry>
        </mxCell>
        <mxCell id="I22vE5lJBab3B9H_vY07-22" value="" style="endArrow=none;html=1;rounded=0;" parent="I22vE5lJBab3B9H_vY07-35" source="j5BVLODVtdJpvDju9NPj-38" target="j5BVLODVtdJpvDju9NPj-43" edge="1">
          <mxGeometry relative="1" as="geometry">
            <mxPoint x="82" y="-69.5" as="sourcePoint" />
            <mxPoint x="242" y="-69.5" as="targetPoint" />
          </mxGeometry>
        </mxCell>
        <mxCell id="I22vE5lJBab3B9H_vY07-23" value="" style="endArrow=none;html=1;rounded=0;" parent="I22vE5lJBab3B9H_vY07-35" source="j5BVLODVtdJpvDju9NPj-38" target="j5BVLODVtdJpvDju9NPj-44" edge="1">
          <mxGeometry relative="1" as="geometry">
            <mxPoint x="92" y="-59.5" as="sourcePoint" />
            <mxPoint x="252" y="-59.5" as="targetPoint" />
          </mxGeometry>
        </mxCell>
        <mxCell id="I22vE5lJBab3B9H_vY07-24" value="" style="endArrow=none;html=1;rounded=0;" parent="I22vE5lJBab3B9H_vY07-35" source="j5BVLODVtdJpvDju9NPj-38" target="j5BVLODVtdJpvDju9NPj-40" edge="1">
          <mxGeometry relative="1" as="geometry">
            <mxPoint x="102" y="-49.5" as="sourcePoint" />
            <mxPoint x="262" y="-49.5" as="targetPoint" />
          </mxGeometry>
        </mxCell>
        <mxCell id="I22vE5lJBab3B9H_vY07-25" value="" style="endArrow=none;html=1;rounded=0;" parent="I22vE5lJBab3B9H_vY07-35" source="j5BVLODVtdJpvDju9NPj-38" target="j5BVLODVtdJpvDju9NPj-42" edge="1">
          <mxGeometry relative="1" as="geometry">
            <mxPoint x="112" y="-39.5" as="sourcePoint" />
            <mxPoint x="272" y="-39.5" as="targetPoint" />
          </mxGeometry>
        </mxCell>
        <mxCell id="o_ZVjZ1x3U8t-O-0K4jL-1" value="1:1" style="text;html=1;strokeColor=none;fillColor=none;align=center;verticalAlign=middle;whiteSpace=wrap;rounded=0;" vertex="1" parent="I22vE5lJBab3B9H_vY07-35">
          <mxGeometry x="-13" y="82.5" width="60" height="30" as="geometry" />
        </mxCell>
        <mxCell id="I22vE5lJBab3B9H_vY07-39" value="" style="group" parent="1" vertex="1" connectable="0">
          <mxGeometry x="-242.5" y="1262" width="384" height="141.5" as="geometry" />
        </mxCell>
        <mxCell id="j5BVLODVtdJpvDju9NPj-82" value="Bureau balance" style="shape=ext;margin=3;double=1;whiteSpace=wrap;html=1;align=center;fontSize=16;" parent="I22vE5lJBab3B9H_vY07-39" vertex="1">
          <mxGeometry x="142" width="102" height="55" as="geometry" />
        </mxCell>
        <mxCell id="j5BVLODVtdJpvDju9NPj-84" value="ID" style="ellipse;whiteSpace=wrap;html=1;align=center;fontStyle=4;fontSize=16;" parent="I22vE5lJBab3B9H_vY07-39" vertex="1">
          <mxGeometry y="7.5" width="100" height="40" as="geometry" />
        </mxCell>
        <mxCell id="j5BVLODVtdJpvDju9NPj-85" value="Months of balance" style="ellipse;whiteSpace=wrap;html=1;align=center;fontSize=16;" parent="I22vE5lJBab3B9H_vY07-39" vertex="1">
          <mxGeometry x="138.5" y="92.5" width="107" height="49" as="geometry" />
        </mxCell>
        <mxCell id="j5BVLODVtdJpvDju9NPj-86" value="Status" style="ellipse;whiteSpace=wrap;html=1;align=center;fontSize=16;" parent="I22vE5lJBab3B9H_vY07-39" vertex="1">
          <mxGeometry x="284" y="7.5" width="100" height="40" as="geometry" />
        </mxCell>
        <mxCell id="I22vE5lJBab3B9H_vY07-36" value="" style="endArrow=none;html=1;rounded=0;" parent="I22vE5lJBab3B9H_vY07-39" source="j5BVLODVtdJpvDju9NPj-84" target="j5BVLODVtdJpvDju9NPj-82" edge="1">
          <mxGeometry relative="1" as="geometry">
            <mxPoint x="112" y="-89.5" as="sourcePoint" />
            <mxPoint x="272" y="-89.5" as="targetPoint" />
          </mxGeometry>
        </mxCell>
        <mxCell id="I22vE5lJBab3B9H_vY07-37" value="" style="endArrow=none;html=1;rounded=0;" parent="I22vE5lJBab3B9H_vY07-39" source="j5BVLODVtdJpvDju9NPj-82" target="j5BVLODVtdJpvDju9NPj-85" edge="1">
          <mxGeometry relative="1" as="geometry">
            <mxPoint x="122" y="-79.5" as="sourcePoint" />
            <mxPoint x="282" y="-79.5" as="targetPoint" />
          </mxGeometry>
        </mxCell>
        <mxCell id="I22vE5lJBab3B9H_vY07-38" value="" style="endArrow=none;html=1;rounded=0;" parent="I22vE5lJBab3B9H_vY07-39" source="j5BVLODVtdJpvDju9NPj-82" target="j5BVLODVtdJpvDju9NPj-86" edge="1">
          <mxGeometry relative="1" as="geometry">
            <mxPoint x="132" y="-69.5" as="sourcePoint" />
            <mxPoint x="292" y="-69.5" as="targetPoint" />
          </mxGeometry>
        </mxCell>
        <mxCell id="I22vE5lJBab3B9H_vY07-48" value="" style="group" parent="1" vertex="1" connectable="0">
          <mxGeometry x="-256" y="684" width="409" height="265.5" as="geometry" />
        </mxCell>
        <mxCell id="j5BVLODVtdJpvDju9NPj-71" value="Bureau" style="whiteSpace=wrap;html=1;align=center;fontSize=16;" parent="I22vE5lJBab3B9H_vY07-48" vertex="1">
          <mxGeometry x="157" y="116.5" width="100" height="40" as="geometry" />
        </mxCell>
        <mxCell id="j5BVLODVtdJpvDju9NPj-72" value="ID" style="ellipse;whiteSpace=wrap;html=1;align=center;fontStyle=4;fontSize=16;" parent="I22vE5lJBab3B9H_vY07-48" vertex="1">
          <mxGeometry x="6" y="84.5" width="100" height="40" as="geometry" />
        </mxCell>
        <mxCell id="j5BVLODVtdJpvDju9NPj-73" value="Active credit" style="ellipse;whiteSpace=wrap;html=1;align=center;fontSize=16;" parent="I22vE5lJBab3B9H_vY07-48" vertex="1">
          <mxGeometry y="146.5" width="112" height="45" as="geometry" />
        </mxCell>
        <mxCell id="j5BVLODVtdJpvDju9NPj-74" value="Credit sum" style="ellipse;whiteSpace=wrap;html=1;align=center;fontSize=16;" parent="I22vE5lJBab3B9H_vY07-48" vertex="1">
          <mxGeometry x="308" y="83" width="101" height="43" as="geometry" />
        </mxCell>
        <mxCell id="j5BVLODVtdJpvDju9NPj-75" value="Credit type" style="ellipse;whiteSpace=wrap;html=1;align=center;fontSize=16;" parent="I22vE5lJBab3B9H_vY07-48" vertex="1">
          <mxGeometry x="308" y="149" width="100" height="40" as="geometry" />
        </mxCell>
        <mxCell id="j5BVLODVtdJpvDju9NPj-76" value="Credit days" style="ellipse;whiteSpace=wrap;html=1;align=center;fontSize=16;" parent="I22vE5lJBab3B9H_vY07-48" vertex="1">
          <mxGeometry x="50.5" y="213.5" width="100" height="40" as="geometry" />
        </mxCell>
        <mxCell id="j5BVLODVtdJpvDju9NPj-77" value="Overdue credit days" style="ellipse;whiteSpace=wrap;html=1;align=center;fontSize=16;" parent="I22vE5lJBab3B9H_vY07-48" vertex="1">
          <mxGeometry x="265" width="95" height="68" as="geometry" />
        </mxCell>
        <mxCell id="j5BVLODVtdJpvDju9NPj-78" value="Credit days update" style="ellipse;whiteSpace=wrap;html=1;align=center;fontSize=16;" parent="I22vE5lJBab3B9H_vY07-48" vertex="1">
          <mxGeometry x="257" y="201.5" width="111" height="64" as="geometry" />
        </mxCell>
        <mxCell id="j5BVLODVtdJpvDju9NPj-79" value="End date of credit days" style="ellipse;whiteSpace=wrap;html=1;align=center;fontSize=16;" parent="I22vE5lJBab3B9H_vY07-48" vertex="1">
          <mxGeometry x="44" y="5.5" width="113" height="57" as="geometry" />
        </mxCell>
        <mxCell id="I22vE5lJBab3B9H_vY07-40" value="" style="endArrow=none;html=1;rounded=0;" parent="I22vE5lJBab3B9H_vY07-48" source="j5BVLODVtdJpvDju9NPj-71" target="j5BVLODVtdJpvDju9NPj-79" edge="1">
          <mxGeometry relative="1" as="geometry">
            <mxPoint x="76" y="287.5" as="sourcePoint" />
            <mxPoint x="236" y="287.5" as="targetPoint" />
          </mxGeometry>
        </mxCell>
        <mxCell id="I22vE5lJBab3B9H_vY07-41" value="" style="endArrow=none;html=1;rounded=0;" parent="I22vE5lJBab3B9H_vY07-48" source="j5BVLODVtdJpvDju9NPj-71" target="j5BVLODVtdJpvDju9NPj-73" edge="1">
          <mxGeometry relative="1" as="geometry">
            <mxPoint x="86" y="300.5" as="sourcePoint" />
            <mxPoint x="246" y="297.5" as="targetPoint" />
          </mxGeometry>
        </mxCell>
        <mxCell id="I22vE5lJBab3B9H_vY07-42" value="" style="endArrow=none;html=1;rounded=0;" parent="I22vE5lJBab3B9H_vY07-48" source="j5BVLODVtdJpvDju9NPj-71" target="j5BVLODVtdJpvDju9NPj-72" edge="1">
          <mxGeometry relative="1" as="geometry">
            <mxPoint x="96" y="307.5" as="sourcePoint" />
            <mxPoint x="256" y="307.5" as="targetPoint" />
          </mxGeometry>
        </mxCell>
        <mxCell id="I22vE5lJBab3B9H_vY07-43" value="" style="endArrow=none;html=1;rounded=0;" parent="I22vE5lJBab3B9H_vY07-48" source="j5BVLODVtdJpvDju9NPj-71" target="j5BVLODVtdJpvDju9NPj-76" edge="1">
          <mxGeometry relative="1" as="geometry">
            <mxPoint x="106" y="317.5" as="sourcePoint" />
            <mxPoint x="266" y="317.5" as="targetPoint" />
          </mxGeometry>
        </mxCell>
        <mxCell id="I22vE5lJBab3B9H_vY07-44" value="" style="endArrow=none;html=1;rounded=0;" parent="I22vE5lJBab3B9H_vY07-48" source="j5BVLODVtdJpvDju9NPj-71" target="j5BVLODVtdJpvDju9NPj-77" edge="1">
          <mxGeometry relative="1" as="geometry">
            <mxPoint x="116" y="327.5" as="sourcePoint" />
            <mxPoint x="276" y="327.5" as="targetPoint" />
          </mxGeometry>
        </mxCell>
        <mxCell id="I22vE5lJBab3B9H_vY07-45" value="" style="endArrow=none;html=1;rounded=0;" parent="I22vE5lJBab3B9H_vY07-48" source="j5BVLODVtdJpvDju9NPj-71" target="j5BVLODVtdJpvDju9NPj-74" edge="1">
          <mxGeometry relative="1" as="geometry">
            <mxPoint x="126" y="337.5" as="sourcePoint" />
            <mxPoint x="286" y="337.5" as="targetPoint" />
          </mxGeometry>
        </mxCell>
        <mxCell id="I22vE5lJBab3B9H_vY07-46" value="" style="endArrow=none;html=1;rounded=0;" parent="I22vE5lJBab3B9H_vY07-48" source="j5BVLODVtdJpvDju9NPj-71" target="j5BVLODVtdJpvDju9NPj-75" edge="1">
          <mxGeometry relative="1" as="geometry">
            <mxPoint x="136" y="347.5" as="sourcePoint" />
            <mxPoint x="296" y="347.5" as="targetPoint" />
          </mxGeometry>
        </mxCell>
        <mxCell id="I22vE5lJBab3B9H_vY07-47" value="" style="endArrow=none;html=1;rounded=0;" parent="I22vE5lJBab3B9H_vY07-48" source="j5BVLODVtdJpvDju9NPj-71" target="j5BVLODVtdJpvDju9NPj-78" edge="1">
          <mxGeometry relative="1" as="geometry">
            <mxPoint x="146" y="357.5" as="sourcePoint" />
            <mxPoint x="306" y="357.5" as="targetPoint" />
          </mxGeometry>
        </mxCell>
        <mxCell id="WK0EuL0EZ-XY26DI0z-9-1" value="&lt;span style=&quot;font-size: 18px;&quot;&gt;B_BB&lt;/span&gt;" style="shape=rhombus;double=1;perimeter=rhombusPerimeter;whiteSpace=wrap;html=1;align=center;" parent="1" vertex="1">
          <mxGeometry x="-95.62" y="1040" width="93.25" height="64" as="geometry" />
        </mxCell>
        <mxCell id="WK0EuL0EZ-XY26DI0z-9-4" value="" style="endArrow=none;html=1;rounded=0;edgeStyle=orthogonalEdgeStyle;" parent="1" source="j5BVLODVtdJpvDju9NPj-71" target="WK0EuL0EZ-XY26DI0z-9-1" edge="1">
          <mxGeometry relative="1" as="geometry">
            <mxPoint x="-108" y="1060.7283950617284" as="sourcePoint" />
            <mxPoint x="52" y="1060.7283950617284" as="targetPoint" />
          </mxGeometry>
        </mxCell>
        <mxCell id="WK0EuL0EZ-XY26DI0z-9-2" value="" style="shape=link;html=1;rounded=0;edgeStyle=orthogonalEdgeStyle;" parent="1" source="WK0EuL0EZ-XY26DI0z-9-1" target="j5BVLODVtdJpvDju9NPj-82" edge="1">
          <mxGeometry relative="1" as="geometry">
            <mxPoint x="-108" y="1060.7283950617284" as="sourcePoint" />
            <mxPoint x="2" y="1176.8765432098764" as="targetPoint" />
          </mxGeometry>
        </mxCell>
        <mxCell id="WK0EuL0EZ-XY26DI0z-9-17" value="" style="group" parent="1" vertex="1" connectable="0">
          <mxGeometry x="-1162" y="-40" width="461.5" height="466" as="geometry" />
        </mxCell>
        <mxCell id="j5BVLODVtdJpvDju9NPj-88" value="Credit card balance" style="whiteSpace=wrap;html=1;align=center;fontSize=16;" parent="WK0EuL0EZ-XY26DI0z-9-17" vertex="1">
          <mxGeometry x="243" y="208" width="99" height="49" as="geometry" />
        </mxCell>
        <mxCell id="j5BVLODVtdJpvDju9NPj-90" value="ID" style="ellipse;whiteSpace=wrap;html=1;align=center;fontStyle=4;fontSize=16;" parent="WK0EuL0EZ-XY26DI0z-9-17" vertex="1">
          <mxGeometry x="3.5" y="245" width="100" height="40" as="geometry" />
        </mxCell>
        <mxCell id="j5BVLODVtdJpvDju9NPj-92" value="Contract status" style="ellipse;whiteSpace=wrap;html=1;align=center;fontSize=16;" parent="WK0EuL0EZ-XY26DI0z-9-17" vertex="1">
          <mxGeometry x="129" y="385" width="101" height="50" as="geometry" />
        </mxCell>
        <mxCell id="j5BVLODVtdJpvDju9NPj-97" value="Months of balance" style="ellipse;whiteSpace=wrap;html=1;align=center;fontSize=16;" parent="WK0EuL0EZ-XY26DI0z-9-17" vertex="1">
          <mxGeometry y="178" width="107" height="49" as="geometry" />
        </mxCell>
        <mxCell id="j5BVLODVtdJpvDju9NPj-98" value="Current payment" style="ellipse;whiteSpace=wrap;html=1;align=center;fontSize=16;" parent="WK0EuL0EZ-XY26DI0z-9-17" vertex="1">
          <mxGeometry x="129" y="35" width="101" height="51" as="geometry" />
        </mxCell>
        <mxCell id="j5BVLODVtdJpvDju9NPj-99" value="Current drawings" style="ellipse;whiteSpace=wrap;html=1;align=center;fontSize=16;" parent="WK0EuL0EZ-XY26DI0z-9-17" vertex="1">
          <mxGeometry x="33.5" y="105" width="111" height="57" as="geometry" />
        </mxCell>
        <mxCell id="j5BVLODVtdJpvDju9NPj-100" value="Recivable" style="ellipse;whiteSpace=wrap;html=1;align=center;fontSize=16;" parent="WK0EuL0EZ-XY26DI0z-9-17" vertex="1">
          <mxGeometry x="243" y="426" width="100" height="40" as="geometry" />
        </mxCell>
        <mxCell id="j5BVLODVtdJpvDju9NPj-101" value="Balance" style="ellipse;whiteSpace=wrap;html=1;align=center;fontSize=16;" parent="WK0EuL0EZ-XY26DI0z-9-17" vertex="1">
          <mxGeometry x="356" y="390" width="100" height="40" as="geometry" />
        </mxCell>
        <mxCell id="j5BVLODVtdJpvDju9NPj-102" value="Actual credit limit" style="ellipse;whiteSpace=wrap;html=1;align=center;fontSize=16;" parent="WK0EuL0EZ-XY26DI0z-9-17" vertex="1">
          <mxGeometry x="32" y="303" width="114" height="60" as="geometry" />
        </mxCell>
        <mxCell id="j5BVLODVtdJpvDju9NPj-103" value="CNT current drawings" style="ellipse;whiteSpace=wrap;html=1;align=center;fontSize=16;" parent="WK0EuL0EZ-XY26DI0z-9-17" vertex="1">
          <mxGeometry x="350.5" y="29.5" width="111" height="62" as="geometry" />
        </mxCell>
        <mxCell id="j5BVLODVtdJpvDju9NPj-105" value="Attribute" style="ellipse;whiteSpace=wrap;html=1;align=center;fontSize=16;" parent="WK0EuL0EZ-XY26DI0z-9-17" vertex="1">
          <mxGeometry x="243" width="100" height="40" as="geometry" />
        </mxCell>
        <mxCell id="WK0EuL0EZ-XY26DI0z-9-7" value="" style="endArrow=none;html=1;rounded=0;" parent="WK0EuL0EZ-XY26DI0z-9-17" source="j5BVLODVtdJpvDju9NPj-88" target="j5BVLODVtdJpvDju9NPj-97" edge="1">
          <mxGeometry relative="1" as="geometry">
            <mxPoint x="416" y="190" as="sourcePoint" />
            <mxPoint x="576" y="190" as="targetPoint" />
          </mxGeometry>
        </mxCell>
        <mxCell id="WK0EuL0EZ-XY26DI0z-9-8" value="" style="endArrow=none;html=1;rounded=0;" parent="WK0EuL0EZ-XY26DI0z-9-17" source="j5BVLODVtdJpvDju9NPj-88" target="j5BVLODVtdJpvDju9NPj-90" edge="1">
          <mxGeometry relative="1" as="geometry">
            <mxPoint x="426" y="200" as="sourcePoint" />
            <mxPoint x="586" y="200" as="targetPoint" />
          </mxGeometry>
        </mxCell>
        <mxCell id="WK0EuL0EZ-XY26DI0z-9-9" value="" style="endArrow=none;html=1;rounded=0;" parent="WK0EuL0EZ-XY26DI0z-9-17" source="j5BVLODVtdJpvDju9NPj-88" target="j5BVLODVtdJpvDju9NPj-99" edge="1">
          <mxGeometry relative="1" as="geometry">
            <mxPoint x="436" y="210" as="sourcePoint" />
            <mxPoint x="596" y="210" as="targetPoint" />
          </mxGeometry>
        </mxCell>
        <mxCell id="WK0EuL0EZ-XY26DI0z-9-10" value="" style="endArrow=none;html=1;rounded=0;" parent="WK0EuL0EZ-XY26DI0z-9-17" source="j5BVLODVtdJpvDju9NPj-88" target="j5BVLODVtdJpvDju9NPj-98" edge="1">
          <mxGeometry relative="1" as="geometry">
            <mxPoint x="446" y="220" as="sourcePoint" />
            <mxPoint x="606" y="220" as="targetPoint" />
          </mxGeometry>
        </mxCell>
        <mxCell id="WK0EuL0EZ-XY26DI0z-9-11" value="" style="endArrow=none;html=1;rounded=0;" parent="WK0EuL0EZ-XY26DI0z-9-17" source="j5BVLODVtdJpvDju9NPj-88" target="j5BVLODVtdJpvDju9NPj-102" edge="1">
          <mxGeometry relative="1" as="geometry">
            <mxPoint x="456" y="230" as="sourcePoint" />
            <mxPoint x="616" y="230" as="targetPoint" />
          </mxGeometry>
        </mxCell>
        <mxCell id="WK0EuL0EZ-XY26DI0z-9-12" value="" style="endArrow=none;html=1;rounded=0;" parent="WK0EuL0EZ-XY26DI0z-9-17" source="j5BVLODVtdJpvDju9NPj-88" target="j5BVLODVtdJpvDju9NPj-92" edge="1">
          <mxGeometry relative="1" as="geometry">
            <mxPoint x="466" y="240" as="sourcePoint" />
            <mxPoint x="626" y="240" as="targetPoint" />
          </mxGeometry>
        </mxCell>
        <mxCell id="WK0EuL0EZ-XY26DI0z-9-13" value="" style="endArrow=none;html=1;rounded=0;" parent="WK0EuL0EZ-XY26DI0z-9-17" source="j5BVLODVtdJpvDju9NPj-88" target="j5BVLODVtdJpvDju9NPj-100" edge="1">
          <mxGeometry relative="1" as="geometry">
            <mxPoint x="476" y="250" as="sourcePoint" />
            <mxPoint x="636" y="250" as="targetPoint" />
          </mxGeometry>
        </mxCell>
        <mxCell id="WK0EuL0EZ-XY26DI0z-9-14" value="" style="endArrow=none;html=1;rounded=0;" parent="WK0EuL0EZ-XY26DI0z-9-17" source="j5BVLODVtdJpvDju9NPj-88" target="j5BVLODVtdJpvDju9NPj-103" edge="1">
          <mxGeometry relative="1" as="geometry">
            <mxPoint x="486" y="260" as="sourcePoint" />
            <mxPoint x="646" y="260" as="targetPoint" />
          </mxGeometry>
        </mxCell>
        <mxCell id="WK0EuL0EZ-XY26DI0z-9-15" value="" style="endArrow=none;html=1;rounded=0;" parent="WK0EuL0EZ-XY26DI0z-9-17" source="j5BVLODVtdJpvDju9NPj-88" target="j5BVLODVtdJpvDju9NPj-101" edge="1">
          <mxGeometry relative="1" as="geometry">
            <mxPoint x="496" y="270" as="sourcePoint" />
            <mxPoint x="656" y="270" as="targetPoint" />
          </mxGeometry>
        </mxCell>
        <mxCell id="WK0EuL0EZ-XY26DI0z-9-16" value="" style="endArrow=none;html=1;rounded=0;" parent="WK0EuL0EZ-XY26DI0z-9-17" source="j5BVLODVtdJpvDju9NPj-88" target="j5BVLODVtdJpvDju9NPj-105" edge="1">
          <mxGeometry relative="1" as="geometry">
            <mxPoint x="506" y="280" as="sourcePoint" />
            <mxPoint x="666" y="280" as="targetPoint" />
          </mxGeometry>
        </mxCell>
        <mxCell id="WK0EuL0EZ-XY26DI0z-9-18" value="" style="group" parent="1" vertex="1" connectable="0">
          <mxGeometry x="-850" y="511" width="252" height="189" as="geometry" />
        </mxCell>
        <mxCell id="j5BVLODVtdJpvDju9NPj-87" value="POS cash balance" style="whiteSpace=wrap;html=1;align=center;fontSize=16;" parent="WK0EuL0EZ-XY26DI0z-9-18" vertex="1">
          <mxGeometry x="145" y="76" width="106" height="46" as="geometry" />
        </mxCell>
        <mxCell id="j5BVLODVtdJpvDju9NPj-89" value="ID" style="ellipse;whiteSpace=wrap;html=1;align=center;fontStyle=4;fontSize=16;" parent="WK0EuL0EZ-XY26DI0z-9-18" vertex="1">
          <mxGeometry x="148" y="149" width="100" height="40" as="geometry" />
        </mxCell>
        <mxCell id="j5BVLODVtdJpvDju9NPj-91" value="Contract status" style="ellipse;whiteSpace=wrap;html=1;align=center;fontSize=16;" parent="WK0EuL0EZ-XY26DI0z-9-18" vertex="1">
          <mxGeometry x="26.5" y="137" width="101" height="50" as="geometry" />
        </mxCell>
        <mxCell id="j5BVLODVtdJpvDju9NPj-93" value="CNT future installment" style="ellipse;whiteSpace=wrap;html=1;align=center;fontSize=16;" parent="WK0EuL0EZ-XY26DI0z-9-18" vertex="1">
          <mxGeometry x="19" y="4" width="116" height="57" as="geometry" />
        </mxCell>
        <mxCell id="j5BVLODVtdJpvDju9NPj-94" value="CNT installment" style="ellipse;whiteSpace=wrap;html=1;align=center;fontSize=16;" parent="WK0EuL0EZ-XY26DI0z-9-18" vertex="1">
          <mxGeometry y="71.25" width="110" height="55.5" as="geometry" />
        </mxCell>
        <mxCell id="j5BVLODVtdJpvDju9NPj-96" value="Months of balance" style="ellipse;whiteSpace=wrap;html=1;align=center;fontSize=16;" parent="WK0EuL0EZ-XY26DI0z-9-18" vertex="1">
          <mxGeometry x="145" width="107" height="49" as="geometry" />
        </mxCell>
        <mxCell id="I22vE5lJBab3B9H_vY07-49" value="" style="endArrow=none;html=1;rounded=0;" parent="WK0EuL0EZ-XY26DI0z-9-18" target="j5BVLODVtdJpvDju9NPj-96" edge="1">
          <mxGeometry relative="1" as="geometry">
            <mxPoint x="198" y="76" as="sourcePoint" />
            <mxPoint x="561" y="76" as="targetPoint" />
          </mxGeometry>
        </mxCell>
        <mxCell id="I22vE5lJBab3B9H_vY07-50" value="" style="endArrow=none;html=1;rounded=0;" parent="WK0EuL0EZ-XY26DI0z-9-18" source="j5BVLODVtdJpvDju9NPj-87" target="j5BVLODVtdJpvDju9NPj-93" edge="1">
          <mxGeometry relative="1" as="geometry">
            <mxPoint x="411" y="86" as="sourcePoint" />
            <mxPoint x="571" y="86" as="targetPoint" />
          </mxGeometry>
        </mxCell>
        <mxCell id="I22vE5lJBab3B9H_vY07-51" value="" style="endArrow=none;html=1;rounded=0;" parent="WK0EuL0EZ-XY26DI0z-9-18" source="j5BVLODVtdJpvDju9NPj-87" target="j5BVLODVtdJpvDju9NPj-94" edge="1">
          <mxGeometry relative="1" as="geometry">
            <mxPoint x="421" y="96" as="sourcePoint" />
            <mxPoint x="581" y="96" as="targetPoint" />
          </mxGeometry>
        </mxCell>
        <mxCell id="I22vE5lJBab3B9H_vY07-52" value="" style="endArrow=none;html=1;rounded=0;" parent="WK0EuL0EZ-XY26DI0z-9-18" source="j5BVLODVtdJpvDju9NPj-87" target="j5BVLODVtdJpvDju9NPj-91" edge="1">
          <mxGeometry relative="1" as="geometry">
            <mxPoint x="431" y="106" as="sourcePoint" />
            <mxPoint x="591" y="106" as="targetPoint" />
          </mxGeometry>
        </mxCell>
        <mxCell id="I22vE5lJBab3B9H_vY07-53" value="" style="endArrow=none;html=1;rounded=0;" parent="WK0EuL0EZ-XY26DI0z-9-18" source="j5BVLODVtdJpvDju9NPj-87" target="j5BVLODVtdJpvDju9NPj-89" edge="1">
          <mxGeometry relative="1" as="geometry">
            <mxPoint x="441" y="116" as="sourcePoint" />
            <mxPoint x="601" y="116" as="targetPoint" />
          </mxGeometry>
        </mxCell>
        <mxCell id="WK0EuL0EZ-XY26DI0z-9-20" value="" style="endArrow=none;html=1;rounded=0;edgeStyle=orthogonalEdgeStyle;" parent="1" source="j5BVLODVtdJpvDju9NPj-88" target="WK0EuL0EZ-XY26DI0z-9-28" edge="1">
          <mxGeometry relative="1" as="geometry">
            <mxPoint x="88" y="188" as="sourcePoint" />
            <mxPoint x="-168" y="328" as="targetPoint" />
          </mxGeometry>
        </mxCell>
        <mxCell id="WK0EuL0EZ-XY26DI0z-9-21" value="" style="endArrow=none;html=1;rounded=0;edgeStyle=orthogonalEdgeStyle;" parent="1" source="WK0EuL0EZ-XY26DI0z-9-30" target="j5BVLODVtdJpvDju9NPj-87" edge="1">
          <mxGeometry relative="1" as="geometry">
            <mxPoint x="-161" y="402" as="sourcePoint" />
            <mxPoint x="-417" y="542" as="targetPoint" />
            <Array as="points">
              <mxPoint x="-416" y="349" />
              <mxPoint x="-416" y="610" />
            </Array>
          </mxGeometry>
        </mxCell>
        <mxCell id="WK0EuL0EZ-XY26DI0z-9-22" value="" style="endArrow=none;html=1;rounded=0;edgeStyle=orthogonalEdgeStyle;" parent="1" source="j5BVLODVtdJpvDju9NPj-1" target="WK0EuL0EZ-XY26DI0z-9-30" edge="1">
          <mxGeometry relative="1" as="geometry">
            <mxPoint x="206" y="91" as="sourcePoint" />
            <mxPoint x="-148" y="348" as="targetPoint" />
            <Array as="points">
              <mxPoint x="135" y="109" />
              <mxPoint x="-223" y="109" />
            </Array>
          </mxGeometry>
        </mxCell>
        <mxCell id="WK0EuL0EZ-XY26DI0z-9-23" value="" style="endArrow=none;html=1;rounded=0;edgeStyle=orthogonalEdgeStyle;" parent="1" source="j5BVLODVtdJpvDju9NPj-1" target="WK0EuL0EZ-XY26DI0z-9-31" edge="1">
          <mxGeometry relative="1" as="geometry">
            <mxPoint x="302" y="-61" as="sourcePoint" />
            <mxPoint x="-138" y="358" as="targetPoint" />
            <Array as="points">
              <mxPoint x="153" y="173" />
              <mxPoint x="-50" y="173" />
            </Array>
          </mxGeometry>
        </mxCell>
        <mxCell id="WK0EuL0EZ-XY26DI0z-9-24" value="" style="endArrow=none;html=1;rounded=0;edgeStyle=orthogonalEdgeStyle;" parent="1" source="j5BVLODVtdJpvDju9NPj-1" target="WK0EuL0EZ-XY26DI0z-9-34" edge="1">
          <mxGeometry relative="1" as="geometry">
            <mxPoint x="292" y="-29" as="sourcePoint" />
            <mxPoint x="-128" y="368" as="targetPoint" />
            <Array as="points">
              <mxPoint x="201" y="43" />
            </Array>
          </mxGeometry>
        </mxCell>
        <mxCell id="WK0EuL0EZ-XY26DI0z-9-25" value="" style="endArrow=none;html=1;rounded=0;edgeStyle=orthogonalEdgeStyle;shape=link;" parent="1" source="j5BVLODVtdJpvDju9NPj-1" target="WK0EuL0EZ-XY26DI0z-9-33" edge="1">
          <mxGeometry relative="1" as="geometry">
            <mxPoint x="288" as="sourcePoint" />
            <mxPoint x="-118" y="378" as="targetPoint" />
            <Array as="points">
              <mxPoint x="184" y="113" />
              <mxPoint x="575" y="113" />
            </Array>
          </mxGeometry>
        </mxCell>
        <mxCell id="WK0EuL0EZ-XY26DI0z-9-26" value="" style="endArrow=none;html=1;rounded=0;edgeStyle=orthogonalEdgeStyle;" parent="1" source="j5BVLODVtdJpvDju9NPj-1" target="WK0EuL0EZ-XY26DI0z-9-32" edge="1">
          <mxGeometry relative="1" as="geometry">
            <mxPoint x="275" y="68" as="sourcePoint" />
            <mxPoint x="-108" y="388" as="targetPoint" />
            <Array as="points">
              <mxPoint x="167" y="173" />
              <mxPoint x="374" y="173" />
            </Array>
          </mxGeometry>
        </mxCell>
        <mxCell id="WK0EuL0EZ-XY26DI0z-9-27" value="" style="endArrow=none;html=1;rounded=0;edgeStyle=orthogonalEdgeStyle;" parent="1" source="j5BVLODVtdJpvDju9NPj-1" target="WK0EuL0EZ-XY26DI0z-9-28" edge="1">
          <mxGeometry relative="1" as="geometry">
            <mxPoint x="122" y="-107" as="sourcePoint" />
            <mxPoint x="-98" y="398" as="targetPoint" />
            <Array as="points">
              <mxPoint x="117" y="43" />
            </Array>
          </mxGeometry>
        </mxCell>
        <mxCell id="WK0EuL0EZ-XY26DI0z-9-28" value="&lt;span style=&quot;font-size: 18px;&quot;&gt;C_CCB&lt;/span&gt;" style="shape=rhombus;perimeter=rhombusPerimeter;whiteSpace=wrap;html=1;align=center;" parent="1" vertex="1">
          <mxGeometry x="-391" y="9" width="93" height="68" as="geometry" />
        </mxCell>
        <mxCell id="WK0EuL0EZ-XY26DI0z-9-30" value="&lt;span style=&quot;font-size: 18px;&quot;&gt;C_PCB&lt;/span&gt;" style="shape=rhombus;perimeter=rhombusPerimeter;whiteSpace=wrap;html=1;align=center;" parent="1" vertex="1">
          <mxGeometry x="-270" y="315" width="93" height="68" as="geometry" />
        </mxCell>
        <mxCell id="WK0EuL0EZ-XY26DI0z-9-31" value="&lt;span style=&quot;font-size: 18px;&quot;&gt;C_B&lt;/span&gt;" style="shape=rhombus;perimeter=rhombusPerimeter;whiteSpace=wrap;html=1;align=center;" parent="1" vertex="1">
          <mxGeometry x="-96" y="441" width="93" height="68" as="geometry" />
        </mxCell>
        <mxCell id="WK0EuL0EZ-XY26DI0z-9-32" value="&lt;span style=&quot;font-size: 18px;&quot;&gt;C_PA&lt;/span&gt;" style="shape=rhombus;perimeter=rhombusPerimeter;whiteSpace=wrap;html=1;align=center;" parent="1" vertex="1">
          <mxGeometry x="327" y="441" width="93" height="68" as="geometry" />
        </mxCell>
        <mxCell id="WK0EuL0EZ-XY26DI0z-9-33" value="&lt;span style=&quot;font-size: 18px;&quot;&gt;C_A&lt;/span&gt;" style="shape=rhombus;double=1;perimeter=rhombusPerimeter;whiteSpace=wrap;html=1;align=center;" parent="1" vertex="1">
          <mxGeometry x="528" y="315" width="93" height="68" as="geometry" />
        </mxCell>
        <mxCell id="WK0EuL0EZ-XY26DI0z-9-34" value="&lt;span style=&quot;font-size: 18px;&quot;&gt;C_IP&lt;/span&gt;" style="shape=rhombus;perimeter=rhombusPerimeter;whiteSpace=wrap;html=1;align=center;" parent="1" vertex="1">
          <mxGeometry x="678" y="9" width="93" height="68" as="geometry" />
        </mxCell>
        <mxCell id="WK0EuL0EZ-XY26DI0z-9-36" value="" style="endArrow=none;html=1;rounded=0;edgeStyle=orthogonalEdgeStyle;" parent="1" source="WK0EuL0EZ-XY26DI0z-9-34" target="j5BVLODVtdJpvDju9NPj-63" edge="1">
          <mxGeometry relative="1" as="geometry">
            <mxPoint x="889" y="49" as="sourcePoint" />
            <mxPoint x="1049" y="49" as="targetPoint" />
            <Array as="points">
              <mxPoint x="1067" y="43" />
              <mxPoint x="1067" y="43" />
            </Array>
          </mxGeometry>
        </mxCell>
        <mxCell id="WK0EuL0EZ-XY26DI0z-9-37" value="" style="endArrow=none;html=1;rounded=0;edgeStyle=orthogonalEdgeStyle;shape=link;" parent="1" source="WK0EuL0EZ-XY26DI0z-9-33" target="j5BVLODVtdJpvDju9NPj-38" edge="1">
          <mxGeometry relative="1" as="geometry">
            <mxPoint x="598" y="559" as="sourcePoint" />
            <mxPoint x="758" y="559" as="targetPoint" />
            <Array as="points">
              <mxPoint x="867" y="349" />
              <mxPoint x="867" y="479" />
            </Array>
          </mxGeometry>
        </mxCell>
        <mxCell id="WK0EuL0EZ-XY26DI0z-9-38" value="" style="endArrow=none;html=1;rounded=0;edgeStyle=orthogonalEdgeStyle;" parent="1" source="WK0EuL0EZ-XY26DI0z-9-32" target="j5BVLODVtdJpvDju9NPj-47" edge="1">
          <mxGeometry relative="1" as="geometry">
            <mxPoint x="580" y="633" as="sourcePoint" />
            <mxPoint x="740" y="633" as="targetPoint" />
            <Array as="points">
              <mxPoint x="374" y="607" />
              <mxPoint x="754" y="607" />
            </Array>
          </mxGeometry>
        </mxCell>
        <mxCell id="WK0EuL0EZ-XY26DI0z-9-39" value="" style="endArrow=none;html=1;rounded=0;edgeStyle=orthogonalEdgeStyle;" parent="1" source="WK0EuL0EZ-XY26DI0z-9-31" target="j5BVLODVtdJpvDju9NPj-71" edge="1">
          <mxGeometry relative="1" as="geometry">
            <mxPoint x="-140" y="553" as="sourcePoint" />
            <mxPoint x="20" y="553" as="targetPoint" />
          </mxGeometry>
        </mxCell>
        <mxCell id="o_ZVjZ1x3U8t-O-0K4jL-2" value="1:1" style="text;html=1;strokeColor=none;fillColor=none;align=center;verticalAlign=middle;whiteSpace=wrap;rounded=0;" vertex="1" parent="1">
          <mxGeometry x="327" y="83" width="60" height="30" as="geometry" />
        </mxCell>
        <mxCell id="o_ZVjZ1x3U8t-O-0K4jL-4" value="&lt;font style=&quot;font-size: 18px;&quot;&gt;1:1&lt;/font&gt;" style="text;html=1;strokeColor=none;fillColor=none;align=center;verticalAlign=middle;whiteSpace=wrap;rounded=0;" vertex="1" parent="1">
          <mxGeometry x="544.5" y="393" width="60" height="30" as="geometry" />
        </mxCell>
        <mxCell id="o_ZVjZ1x3U8t-O-0K4jL-7" value="0:1" style="text;html=1;strokeColor=none;fillColor=none;align=center;verticalAlign=middle;whiteSpace=wrap;rounded=0;" vertex="1" parent="1">
          <mxGeometry x="383" y="15" width="60" height="30" as="geometry" />
        </mxCell>
        <mxCell id="o_ZVjZ1x3U8t-O-0K4jL-9" value="&lt;font style=&quot;font-size: 18px;&quot;&gt;1:N&lt;/font&gt;" style="text;html=1;strokeColor=none;fillColor=none;align=center;verticalAlign=middle;whiteSpace=wrap;rounded=0;" vertex="1" parent="1">
          <mxGeometry x="694.5" y="-33" width="60" height="30" as="geometry" />
        </mxCell>
        <mxCell id="o_ZVjZ1x3U8t-O-0K4jL-10" value="0:1" style="text;html=1;strokeColor=none;fillColor=none;align=center;verticalAlign=middle;whiteSpace=wrap;rounded=0;" vertex="1" parent="1">
          <mxGeometry x="-119" y="15" width="60" height="30" as="geometry" />
        </mxCell>
        <mxCell id="o_ZVjZ1x3U8t-O-0K4jL-11" value="0:N" style="text;html=1;strokeColor=none;fillColor=none;align=center;verticalAlign=middle;whiteSpace=wrap;rounded=0;" vertex="1" parent="1">
          <mxGeometry x="-629" y="166" width="60" height="30" as="geometry" />
        </mxCell>
        <mxCell id="o_ZVjZ1x3U8t-O-0K4jL-12" value="&lt;font style=&quot;font-size: 18px;&quot;&gt;N:1&lt;/font&gt;" style="text;html=1;strokeColor=none;fillColor=none;align=center;verticalAlign=middle;whiteSpace=wrap;rounded=0;" vertex="1" parent="1">
          <mxGeometry x="-374.5" y="-29" width="60" height="30" as="geometry" />
        </mxCell>
        <mxCell id="o_ZVjZ1x3U8t-O-0K4jL-13" value="0:1" style="text;html=1;strokeColor=none;fillColor=none;align=center;verticalAlign=middle;whiteSpace=wrap;rounded=0;" vertex="1" parent="1">
          <mxGeometry x="248" y="142" width="60" height="30" as="geometry" />
        </mxCell>
        <mxCell id="o_ZVjZ1x3U8t-O-0K4jL-31" value="0:N" style="text;html=1;strokeColor=none;fillColor=none;align=center;verticalAlign=middle;whiteSpace=wrap;rounded=0;" vertex="1" parent="1">
          <mxGeometry x="524" y="576" width="60" height="30" as="geometry" />
        </mxCell>
        <mxCell id="o_ZVjZ1x3U8t-O-0K4jL-33" value="&lt;font style=&quot;font-size: 18px;&quot;&gt;1:N&lt;/font&gt;" style="text;html=1;strokeColor=none;fillColor=none;align=center;verticalAlign=middle;whiteSpace=wrap;rounded=0;" vertex="1" parent="1">
          <mxGeometry x="258" y="460" width="60" height="30" as="geometry" />
        </mxCell>
        <mxCell id="o_ZVjZ1x3U8t-O-0K4jL-34" value="0:1" style="text;html=1;strokeColor=none;fillColor=none;align=center;verticalAlign=middle;whiteSpace=wrap;rounded=0;" vertex="1" parent="1">
          <mxGeometry x="21" y="142" width="60" height="30" as="geometry" />
        </mxCell>
        <mxCell id="o_ZVjZ1x3U8t-O-0K4jL-35" value="&lt;font style=&quot;font-size: 18px;&quot;&gt;N:1&lt;/font&gt;" style="text;html=1;strokeColor=none;fillColor=none;align=center;verticalAlign=middle;whiteSpace=wrap;rounded=0;" vertex="1" parent="1">
          <mxGeometry x="10" y="460" width="60" height="30" as="geometry" />
        </mxCell>
        <mxCell id="o_ZVjZ1x3U8t-O-0K4jL-36" value="0:N" style="text;html=1;strokeColor=none;fillColor=none;align=center;verticalAlign=middle;whiteSpace=wrap;rounded=0;" vertex="1" parent="1">
          <mxGeometry x="-50" y="590.5" width="60" height="30" as="geometry" />
        </mxCell>
        <mxCell id="o_ZVjZ1x3U8t-O-0K4jL-37" value="0:1" style="text;html=1;strokeColor=none;fillColor=none;align=center;verticalAlign=middle;whiteSpace=wrap;rounded=0;" vertex="1" parent="1">
          <mxGeometry x="-52" y="949.5" width="60" height="30" as="geometry" />
        </mxCell>
        <mxCell id="o_ZVjZ1x3U8t-O-0K4jL-38" value="1:N" style="text;html=1;strokeColor=none;fillColor=none;align=center;verticalAlign=middle;whiteSpace=wrap;rounded=0;" vertex="1" parent="1">
          <mxGeometry x="-52" y="1182" width="60" height="30" as="geometry" />
        </mxCell>
        <mxCell id="o_ZVjZ1x3U8t-O-0K4jL-39" value="&lt;font style=&quot;font-size: 18px;&quot;&gt;N:1&lt;/font&gt;" style="text;html=1;strokeColor=none;fillColor=none;align=center;verticalAlign=middle;whiteSpace=wrap;rounded=0;" vertex="1" parent="1">
          <mxGeometry x="8" y="1057" width="60" height="30" as="geometry" />
        </mxCell>
        <mxCell id="o_ZVjZ1x3U8t-O-0K4jL-40" value="&lt;font style=&quot;font-size: 18px;&quot;&gt;N:1&lt;/font&gt;" style="text;html=1;strokeColor=none;fillColor=none;align=center;verticalAlign=middle;whiteSpace=wrap;rounded=0;" vertex="1" parent="1">
          <mxGeometry x="-310" y="294" width="60" height="30" as="geometry" />
        </mxCell>
        <mxCell id="o_ZVjZ1x3U8t-O-0K4jL-41" value="0:1" style="text;html=1;strokeColor=none;fillColor=none;align=center;verticalAlign=middle;whiteSpace=wrap;rounded=0;" vertex="1" parent="1">
          <mxGeometry x="-43" y="77" width="60" height="30" as="geometry" />
        </mxCell>
        <mxCell id="o_ZVjZ1x3U8t-O-0K4jL-42" value="0:N" style="text;html=1;strokeColor=none;fillColor=none;align=center;verticalAlign=middle;whiteSpace=wrap;rounded=0;" vertex="1" parent="1">
          <mxGeometry x="-534" y="581" width="60" height="30" as="geometry" />
        </mxCell>
      </root>
    </mxGraphModel>
  </diagram>
</mxfile>
